<?xml version="1.0" encoding="utf-8"?>
<!-- Generator: Adobe Illustrator 16.0.0, SVG Export Plug-In . SVG Version: 6.00 Build 0)  -->
<!DOCTYPE svg PUBLIC "-//W3C//DTD SVG 1.1//EN" "http://www.w3.org/Graphics/SVG/1.1/DTD/svg11.dtd">
<svg version="1.1" id="Layer_1" xmlns="http://www.w3.org/2000/svg" xmlns:xlink="http://www.w3.org/1999/xlink" x="0px" y="0px"
	 width="200px" height="32px" viewBox="0 0 200 32" enable-background="new 0 0 200 32" xml:space="preserve">
<path fill-rule="evenodd" clip-rule="evenodd" fill="#FFDC0D" d="M19.015,17.175c-0.879-1.439-1.315-3.365-1.315-5.751
	c0-2.319,0.53-4.144,1.626-5.469C19.86,5.324,20.5,4.84,21.255,4.5c0.75-0.341,1.55-0.514,2.411-0.514
	c0.86,0,1.595,0.044,2.19,0.104c1.35,0.145,2.635,0.555,3.87,1.221l0.14-3.62c-0.47-0.085-0.905-0.16-1.285-0.251
	C28.19,1.355,27.645,1.25,26.94,1.13c-0.719-0.115-1.77-0.189-3.181-0.189c-3.209,0-5.764,0.885-7.645,2.62
	C14.036,5.47,13,8.249,13,11.879c0,3.295,0.896,5.886,2.696,7.782c0.875,0.944,1.939,1.68,3.224,2.179
	c1.286,0.501,2.785,0.751,4.525,0.751c1.739,0,3.399-0.221,4.98-0.665c0.595-0.145,1.095-0.295,1.52-0.44
	c0.405-0.131,0.785-0.206,1.096-0.206v-9.983h-7.581v3.044h3.306v4.631c-0.97,0.385-2.05,0.575-3.24,0.575
	c-1.189,0-2.129-0.206-2.82-0.636C20.015,18.501,19.45,17.91,19.015,17.175z"/>
<path fill-rule="evenodd" clip-rule="evenodd" fill="#FFDC0D" d="M38.09,15.839c0.99-0.514,2.27-0.778,3.84-0.778v3.659
	c-0.08,0.09-0.205,0.19-0.379,0.28c-0.67,0.37-1.375,0.546-2.125,0.546c-0.69,0-1.225-0.176-1.6-0.53
	c-0.205-0.176-0.36-0.396-0.47-0.66c-0.125-0.266-0.17-0.576-0.17-0.916C37.185,16.674,37.48,16.146,38.09,15.839z M42.115,21.105
	c0,0.66,0.16,1.1,0.485,1.305c0.175,0.121,0.565,0.181,1.175,0.181h2.584V12.25c0-2.145-0.55-3.66-1.615-4.515
	c-0.53-0.425-1.22-0.721-2.035-0.895c-0.829-0.165-1.69-0.25-2.564-0.25c-0.896,0-1.66,0.055-2.305,0.159
	c-1.925,0.325-3.445,0.78-4.555,1.379l0.985,2.531c0.33-0.129,0.955-0.336,1.88-0.615c0.925-0.266,1.785-0.414,2.569-0.414
	c1.361,0,2.235,0.12,2.645,0.34c0.375,0.22,0.565,0.72,0.565,1.499v0.91c-2.929,0-5.089,0.311-6.484,0.931
	c-1.896,0.849-2.836,2.204-2.836,4.029c0,1.54,0.485,2.805,1.456,3.78c0.975,0.985,2.239,1.471,3.839,1.471
	c1.625,0,3.035-0.529,4.21-1.606V21.105z"/>
<path fill-rule="evenodd" clip-rule="evenodd" fill="#FFDC0D" d="M49.056,15.81c0,2.312,0.299,3.94,0.924,4.896
	c0.784,1.266,2.255,1.886,4.401,1.886c0.394,0,0.798-0.03,1.24-0.104c1.345-0.236,2.505-0.646,3.474-1.267v0.651
	c0,0.304,0.095,0.499,0.28,0.585c0.189,0.089,0.455,0.135,0.8,0.135h2.929v-16H58.67v12.04c-0.125,0.105-0.295,0.209-0.485,0.31
	c-0.75,0.415-1.484,0.605-2.22,0.605c-0.924,0-1.55-0.206-1.88-0.636c-0.409-0.499-0.595-1.484-0.595-2.955V6.591h-4.434V15.81z"/>
<path fill-rule="evenodd" clip-rule="evenodd" fill="#FFDC0D" d="M74.274,19.546c-1.364,0-2.399-0.426-3.1-1.296
	c-0.379-0.44-0.644-0.985-0.813-1.62c-0.191-0.615-0.271-1.38-0.271-2.29c0-0.899,0.125-1.665,0.41-2.31
	c0.72-1.59,1.956-2.399,3.725-2.399c1.35,0,2.416,0.265,3.195,0.765l0.55-3.085c-0.14-0.075-0.345-0.165-0.595-0.25
	c-0.955-0.311-2.16-0.47-3.604-0.47c-2.63,0-4.666,0.789-6.105,2.38c-1.315,1.453-1.976,3.399-1.976,5.809
	c0,2.341,0.631,4.191,1.896,5.576c1.335,1.5,3.209,2.235,5.656,2.235c0.5,0,1-0.03,1.489-0.104c1.565-0.207,2.725-0.615,3.476-1.251
	l-0.626-2.381C76.73,19.325,75.62,19.546,74.274,19.546z"/>
<path fill-rule="evenodd" clip-rule="evenodd" fill="#FFDC0D" d="M80.305,22.591h4.436V11.59c0.25-0.21,0.516-0.4,0.795-0.56
	c0.846-0.44,1.675-0.675,2.49-0.675c0.865,0,1.475,0.25,1.819,0.72c0.345,0.5,0.53,1.38,0.53,2.66v8.855h4.435V12.78
	c0-2.236-0.456-3.855-1.364-4.855c-0.441-0.499-0.986-0.834-1.615-1.044c-0.641-0.19-1.279-0.29-1.939-0.29
	c-0.654,0-1.271,0.069-1.814,0.204c-1.381,0.351-2.572,0.94-3.572,1.78L84.74,5.75V0h-4.436V22.591z"/>
<path fill-rule="evenodd" clip-rule="evenodd" fill="#FFDC0D" d="M106.305,10.06c1.159,0.795,1.741,2.336,1.741,4.63
	c0,3.236-1.095,4.856-3.26,4.856c-0.626,0-1.142-0.149-1.551-0.441c-1.19-0.824-1.771-2.398-1.771-4.749
	c0-3.15,1.115-4.725,3.356-4.725C105.379,9.631,105.886,9.779,106.305,10.06z M104.614,22.591c2.351,0,4.262-0.65,5.7-1.971
	c1.535-1.4,2.321-3.369,2.321-5.931c0-2.31-0.581-4.174-1.712-5.599c-1.33-1.665-3.334-2.5-6.013-2.5
	c-2.381,0-4.277,0.659-5.7,1.969C98.49,9.205,97.926,10.03,97.506,11c-0.425,0.969-0.625,2.06-0.625,3.235
	c0,1.189,0.124,2.28,0.39,3.251c0.249,0.97,0.689,1.839,1.315,2.603C99.914,21.766,101.92,22.591,104.614,22.591z"/>
<path fill-rule="evenodd" clip-rule="evenodd" fill="#FFDC0D" d="M118.29,20.326c-1.454-0.222-2.664-0.606-3.62-1.166l-0.751,2.386
	c0.19,0.115,0.472,0.235,0.86,0.35c1.477,0.475,3.195,0.695,5.2,0.695c2.195,0,3.913-0.446,5.186-1.355
	c0.625-0.454,1.109-1.029,1.47-1.734c0.345-0.705,0.535-1.53,0.535-2.501c0-0.97-0.314-1.87-0.926-2.72
	c-0.298-0.386-0.639-0.736-1.02-1.061c-0.39-0.324-0.814-0.63-1.25-0.924c-0.438-0.281-0.91-0.545-1.38-0.796
	c-0.47-0.25-1.249-0.63-2.314-1.161c-1.064-0.514-1.865-1.014-2.381-1.499c-0.364-0.294-0.615-0.634-0.769-1
	c-0.156-0.355-0.236-0.779-0.236-1.249s0.11-0.871,0.36-1.195c0.661-0.896,1.91-1.351,3.761-1.351c1.72,0,3.194,0.365,4.43,1.085
	l0.646-2.259c-0.471-0.266-1.087-0.491-1.821-0.666c-0.42-0.085-0.904-0.16-1.44-0.221c-0.528-0.059-1.283-0.104-2.253-0.104
	c-0.973,0-1.941,0.165-2.946,0.491c-2.505,0.834-3.755,2.425-3.755,4.774c0,1.354,0.56,2.59,1.689,3.734
	c0.501,0.515,1.08,0.975,1.735,1.37c0.646,0.41,1.585,0.895,2.82,1.455c1.24,0.575,2.13,1.074,2.694,1.515
	c0.83,0.65,1.256,1.44,1.256,2.372c0,1.893-1.445,2.834-4.312,2.834C119.261,20.426,118.774,20.396,118.29,20.326z"/>
<path fill-rule="evenodd" clip-rule="evenodd" fill="#FFDC0D" d="M139.7,14.189c0,2.001-0.455,3.561-1.346,4.681
	c-0.846,1.04-1.929,1.556-3.275,1.556c-1.409,0-2.38-0.236-2.908-0.706v-9.614c1.124-0.9,2.284-1.354,3.46-1.354
	C138.34,8.751,139.7,10.575,139.7,14.189z M140.67,20.189c1.475-1.569,2.21-3.63,2.21-6.175c0-2.395-0.645-4.264-1.91-5.604
	c-0.595-0.615-1.27-1.069-2.035-1.365c-0.785-0.295-1.661-0.454-2.666-0.454c-0.999,0-1.989,0.22-2.928,0.659
	c-0.451,0.205-0.941,0.545-1.471,1.03V6.591h-2.835V32h3.136v-7.749l-0.051-2.046c0.8,0.265,1.739,0.386,2.834,0.386
	s2.146-0.212,3.151-0.62C139.105,21.561,139.951,20.955,140.67,20.189z"/>
<path fill-rule="evenodd" clip-rule="evenodd" fill="#FFDC0D" d="M148.188,16.66c0.162-0.174,0.362-0.335,0.583-0.486
	c0.22-0.128,0.454-0.264,0.733-0.394c0.286-0.12,0.801-0.279,1.587-0.455c0.779-0.181,1.718-0.265,2.833-0.265v4.279
	c-0.095,0.085-0.249,0.206-0.484,0.321c-0.939,0.514-1.931,0.765-2.96,0.765c-1.864,0-2.79-0.78-2.79-2.366
	C147.689,17.53,147.845,17.062,148.188,16.66z M147.58,22.279c0.595,0.207,1.205,0.312,1.799,0.312c0.596,0,1.13-0.046,1.586-0.135
	c1.316-0.235,2.345-0.675,3.13-1.326v0.105c0,0.604,0.155,1,0.486,1.189c0.188,0.12,0.578,0.166,1.189,0.166h1.27V11.545
	c0-1.914-0.534-3.25-1.58-4.015c-0.521-0.355-1.13-0.604-1.835-0.735c-0.705-0.135-1.425-0.204-2.175-0.204
	c-0.755,0-1.44,0.055-2.071,0.175c-1.894,0.34-3.239,0.734-4.055,1.205l0.77,1.9c0.187-0.12,0.437-0.251,0.782-0.386
	c1.299-0.485,2.489-0.734,3.584-0.734c1.255,0,2.13,0.159,2.6,0.454c0.565,0.37,0.864,1.075,0.864,2.119v1.571h-1.489
	c-3.46,0-5.779,0.794-6.969,2.354c-0.581,0.765-0.86,1.589-0.86,2.469c0,0.888,0.109,1.621,0.358,2.191
	c0.251,0.574,0.596,1.06,1.036,1.46C146.435,21.766,146.971,22.075,147.58,22.279z"/>
<path fill-rule="evenodd" clip-rule="evenodd" fill="#FFDC0D" d="M171.031,7.355c-0.882-0.501-2.196-0.765-3.981-0.765
	c-2.52,0-4.48,0.789-5.854,2.364c-1.32,1.469-1.961,3.415-1.961,5.794c0,2.312,0.61,4.176,1.85,5.591
	c1.281,1.5,3.036,2.251,5.261,2.251c2.195,0,3.855-0.461,4.965-1.386l-0.645-1.704c-0.187,0.119-0.407,0.219-0.669,0.324
	c-1.051,0.41-2.116,0.601-3.181,0.601c-1.381,0-2.49-0.53-3.319-1.586c-0.847-1.061-1.256-2.469-1.256-4.22
	c0-2.016,0.519-3.56,1.55-4.62c0.831-0.825,1.865-1.249,3.104-1.249c1.58,0,2.785,0.34,3.629,1L171.031,7.355z"/>
<path fill-rule="evenodd" clip-rule="evenodd" fill="#FFDC0D" d="M182.07,13.176h-7.141c0.345-2.94,1.646-4.425,3.931-4.425
	c2.146,0,3.225,1.279,3.225,3.839C182.085,12.795,182.07,12.984,182.07,13.176z M184.845,15.339c0.09-0.469,0.155-1.414,0.155-2.809
	c-0.065-1.885-0.674-3.386-1.815-4.485c-1.064-0.97-2.415-1.454-4.061-1.454c-2.329,0-4.164,0.779-5.479,2.319
	c-1.22,1.445-1.831,3.325-1.831,5.65c0,2.529,0.611,4.499,1.86,5.895c1.241,1.426,3.012,2.136,5.312,2.136
	c0.469,0,0.989-0.03,1.519-0.104c1.836-0.207,3.151-0.605,3.931-1.19l-0.595-1.706c-0.405,0.221-1.03,0.41-1.91,0.585
	c-0.376,0.09-0.764,0.151-1.145,0.195c-0.392,0.04-0.811,0.056-1.266,0.056c-0.47,0-0.989-0.07-1.564-0.251
	c-1.931-0.529-2.961-2.13-3.085-4.836H184.845z"/>
<g>
	<path fill="#FFFFFF" d="M4.049,22.56v-1.148l0.788-0.006c-0.325-0.488-0.559-1.043-0.703-1.664
		c-0.057-0.258-0.085-0.527-0.085-0.809s0.042-0.543,0.126-0.785s0.229-0.443,0.436-0.604c0.394-0.301,1.079-0.451,2.055-0.451
		h4.157v1.289H6.661c-0.585,0-0.989,0.078-1.212,0.234c-0.226,0.156-0.339,0.438-0.339,0.844c0,0.441,0.138,0.904,0.413,1.389
		c0.083,0.148,0.179,0.289,0.288,0.422h5.012v1.289H4.049z"/>
	<path fill="#FFFFFF" d="M7.676,14.269c1.156-0.059,1.848-0.484,2.074-1.277c0.07-0.238,0.105-0.453,0.105-0.645
		s-0.01-0.366-0.029-0.524s-0.045-0.315-0.076-0.472c-0.078-0.363-0.164-0.627-0.258-0.791l0.738-0.246
		c0.266,0.324,0.449,0.867,0.551,1.629c0.031,0.219,0.047,0.428,0.047,0.627c0,0.945-0.301,1.676-0.902,2.191
		c-0.594,0.512-1.427,0.768-2.499,0.768c-0.991,0-1.789-0.252-2.395-0.756c-0.656-0.547-0.983-1.301-0.983-2.262
		c0-0.684,0.202-1.242,0.606-1.676c0.454-0.477,1.072-0.727,1.854-0.75c0.58,0,0.969,0.021,1.167,0.064V14.269z M6.574,11.286
		c-1.074,0-1.611,0.443-1.611,1.33c0,0.941,0.619,1.482,1.857,1.623v-2.947C6.738,11.288,6.656,11.286,6.574,11.286z"/>
	<path fill="#FFFFFF" d="M4.049,9.394V8.104l4.079-1.078l1.276-0.293l-1.271-0.27L4.049,5.351V4.067L8.128,2.96l1.3-0.287
		L8.169,2.38L4.049,1.337v-1.26l6.867,2.039v1.189L6.551,4.501L5.484,4.718l1.066,0.234l4.365,1.178v1.225L4.049,9.394z"/>
</g>
</svg>
