<?xml version="1.0" encoding="utf-8"?>
<!-- Generator: Adobe Illustrator 15.0.2, SVG Export Plug-In . SVG Version: 6.00 Build 0)  -->
<!DOCTYPE svg PUBLIC "-//W3C//DTD SVG 1.1//EN" "http://www.w3.org/Graphics/SVG/1.1/DTD/svg11.dtd">
<svg version="1.1" xmlns="http://www.w3.org/2000/svg" xmlns:xlink="http://www.w3.org/1999/xlink" x="0px" y="0px" width="200px"
	 height="32px" viewBox="0 0 200 32" enable-background="new 0 0 200 32" xml:space="preserve">
<g id="Gradebook">
	<g>
		<path fill="#FFDC0D" d="M33.114,6.792c0.12,0,0.252,0.002,0.396,0.007c0.145,0.005,0.284,0.014,0.419,0.027
			s0.259,0.027,0.375,0.041c0.114,0.014,0.202,0.029,0.262,0.047v3.88c-0.08-0.018-0.189-0.036-0.329-0.054
			c-0.14-0.018-0.287-0.034-0.442-0.047s-0.307-0.022-0.456-0.027c-0.15-0.004-0.275-0.007-0.375-0.007
			c-0.588,0-1.13,0.068-1.624,0.204c-0.494,0.136-0.918,0.355-1.272,0.658c-0.354,0.303-0.629,0.701-0.823,1.194
			c-0.195,0.493-0.292,1.097-0.292,1.812v7.72h-4.564V7.077h3.457l0.673,2.279h0.225c0.24-0.389,0.499-0.742,0.778-1.058
			c0.279-0.317,0.591-0.586,0.936-0.808c0.344-0.221,0.733-0.394,1.167-0.516S32.555,6.792,33.114,6.792z"/>
		<path fill="#FFDC0D" d="M59.917,22.517c-0.858,0-1.642-0.168-2.35-0.502c-0.708-0.334-1.317-0.83-1.826-1.484
			c-0.509-0.656-0.905-1.473-1.189-2.449c-0.285-0.979-0.427-2.108-0.427-3.393c0-1.303,0.142-2.444,0.427-3.426
			c0.284-0.981,0.688-1.805,1.212-2.469c0.524-0.665,1.15-1.165,1.878-1.5c0.728-0.334,1.531-0.502,2.41-0.502
			c0.539,0,1.033,0.057,1.481,0.17c0.449,0.113,0.853,0.271,1.212,0.475c0.359,0.204,0.681,0.439,0.965,0.706
			c0.284,0.267,0.536,0.559,0.755,0.875h0.15c-0.06-0.353-0.115-0.71-0.165-1.072c-0.05-0.307-0.092-0.635-0.127-0.983
			s-0.052-0.672-0.052-0.97V1.134h4.564v21.111H65.35l-0.883-1.967h-0.194c-0.209,0.307-0.449,0.6-0.718,0.875
			c-0.27,0.275-0.582,0.514-0.936,0.713s-0.753,0.357-1.197,0.475S60.476,22.517,59.917,22.517z M61.579,19.22
			c0.539,0,0.998-0.084,1.377-0.25c0.379-0.168,0.686-0.422,0.92-0.76c0.234-0.34,0.409-0.764,0.523-1.27
			c0.115-0.507,0.177-1.1,0.188-1.778v-0.447c0-0.733-0.05-1.384-0.15-1.954s-0.265-1.047-0.494-1.431
			c-0.23-0.384-0.539-0.676-0.928-0.875c-0.389-0.199-0.878-0.299-1.466-0.299c-0.958,0-1.661,0.392-2.11,1.174
			c-0.449,0.782-0.673,1.92-0.673,3.412c0,1.493,0.227,2.612,0.681,3.358S60.611,19.22,61.579,19.22z"/>
		<path fill="#FFDC0D" d="M80.975,22.517c-1.197,0-2.301-0.158-3.309-0.475s-1.875-0.793-2.604-1.432
			c-0.728-0.637-1.294-1.441-1.698-2.414c-0.404-0.973-0.606-2.115-0.606-3.427c0-1.33,0.185-2.492,0.554-3.487
			s0.885-1.825,1.55-2.49c0.662-0.665,1.461-1.165,2.395-1.5c0.932-0.334,1.967-0.502,3.104-0.502c1.108,0,2.108,0.152,3.001,0.455
			c0.893,0.303,1.65,0.749,2.275,1.336c0.623,0.588,1.102,1.309,1.436,2.164s0.502,1.834,0.502,2.938v2.008H77.367
			c0.02,0.578,0.122,1.102,0.307,1.566c0.186,0.467,0.444,0.859,0.779,1.182c0.334,0.32,0.737,0.566,1.211,0.738
			c0.475,0.172,1.016,0.258,1.625,0.258c0.508,0,0.989-0.023,1.443-0.074c0.454-0.049,0.896-0.125,1.324-0.225
			c0.43-0.098,0.854-0.223,1.272-0.373c0.419-0.148,0.849-0.322,1.287-0.521v3.201c-0.399,0.191-0.801,0.352-1.204,0.482
			c-0.404,0.131-0.831,0.242-1.28,0.332c-0.448,0.09-0.933,0.156-1.452,0.197C82.161,22.497,81.593,22.517,80.975,22.517z
			 M80.391,9.736c-0.809,0-1.479,0.258-2.014,0.773c-0.533,0.516-0.84,1.325-0.92,2.429h5.822c-0.01-0.461-0.075-0.887-0.195-1.275
			c-0.119-0.389-0.299-0.726-0.539-1.011c-0.238-0.285-0.538-0.509-0.897-0.672C81.289,9.817,80.869,9.736,80.391,9.736z"/>
		<path fill="#FFDC0D" d="M100.355,6.792c0.857,0,1.641,0.167,2.35,0.502c0.707,0.335,1.316,0.833,1.826,1.493
			c0.508,0.66,0.904,1.479,1.189,2.456c0.283,0.977,0.426,2.108,0.426,3.392c0,1.303-0.143,2.445-0.426,3.426
			c-0.285,0.982-0.686,1.803-1.205,2.463s-1.143,1.158-1.871,1.492s-1.531,0.502-2.408,0.502c-0.561,0-1.057-0.055-1.49-0.162
			c-0.434-0.109-0.82-0.254-1.16-0.434c-0.338-0.182-0.635-0.387-0.891-0.619c-0.254-0.23-0.486-0.471-0.695-0.725h-0.314
			l-0.764,1.668h-3.486V1.134H96v4.912c0,0.298-0.01,0.622-0.029,0.97c-0.021,0.348-0.041,0.671-0.061,0.97
			c-0.029,0.353-0.061,0.706-0.09,1.059H96c0.209-0.316,0.449-0.611,0.719-0.882c0.27-0.271,0.58-0.509,0.936-0.712
			c0.354-0.204,0.756-0.364,1.205-0.481C99.307,6.851,99.807,6.792,100.355,6.792z M98.814,10.102c-0.51,0-0.941,0.084-1.295,0.251
			c-0.355,0.167-0.641,0.418-0.861,0.753c-0.219,0.335-0.379,0.758-0.479,1.269c-0.1,0.511-0.16,1.106-0.18,1.784v0.448
			c0,0.733,0.047,1.384,0.143,1.953c0.094,0.57,0.252,1.049,0.471,1.432c0.221,0.385,0.512,0.678,0.875,0.877
			c0.365,0.197,0.816,0.297,1.355,0.297c0.908,0,1.574-0.391,1.998-1.174c0.424-0.781,0.637-1.92,0.637-3.412
			c0-1.493-0.213-2.612-0.637-3.358C100.418,10.475,99.742,10.102,98.814,10.102z"/>
		<path fill="#FFDC0D" d="M151.18,13.996l1.676-2.307l4.086-4.613h5.148l-6.047,6.58l6.436,8.588h-5.268l-4.07-5.834l-1.781,1.113
			v4.721h-4.564V1.134h4.564v9.416l-0.24,3.446H151.18z"/>
		<path fill="#FFDC0D" d="M7.015,17.233C6.136,15.795,5.7,13.869,5.7,11.483c0-2.319,0.53-4.144,1.626-5.469
			C7.86,5.383,8.5,4.899,9.255,4.559c0.75-0.341,1.55-0.514,2.411-0.514c0.86,0,1.595,0.044,2.19,0.104
			c1.35,0.145,2.635,0.555,3.87,1.221l0.14-3.62c-0.47-0.085-0.905-0.16-1.285-0.251c-0.391-0.085-0.936-0.19-1.641-0.31
			C14.221,1.074,13.17,1,11.759,1C8.55,1,5.995,1.885,4.114,3.62C2.036,5.529,1,8.308,1,11.938c0,3.295,0.896,5.887,2.696,7.782
			c0.875,0.945,1.939,1.68,3.224,2.18c1.286,0.5,2.785,0.75,4.525,0.75c1.739,0,3.399-0.221,4.98-0.664
			c0.595-0.145,1.095-0.295,1.52-0.439c0.405-0.131,0.785-0.207,1.096-0.207v-9.983H11.46V14.4h3.306v4.632
			c-0.97,0.385-2.05,0.574-3.24,0.574c-1.189,0-2.129-0.207-2.82-0.637C8.015,18.56,7.45,17.97,7.015,17.233z"/>
		<path fill="#FFDC0D" d="M42.09,15.897c0.99-0.513,2.27-0.777,3.84-0.777v3.658c-0.08,0.092-0.205,0.191-0.379,0.281
			c-0.67,0.369-1.375,0.545-2.125,0.545c-0.69,0-1.225-0.176-1.6-0.529c-0.205-0.176-0.36-0.396-0.47-0.66
			c-0.125-0.266-0.17-0.576-0.17-0.916C41.185,16.733,41.48,16.205,42.09,15.897z M46.115,21.165c0,0.66,0.16,1.1,0.485,1.305
			c0.175,0.121,0.565,0.18,1.175,0.18h2.584v-10.34c0-2.145-0.55-3.66-1.615-4.515c-0.53-0.425-1.22-0.721-2.035-0.895
			c-0.829-0.165-1.69-0.25-2.564-0.25c-0.896,0-1.66,0.055-2.305,0.159c-1.925,0.325-3.445,0.78-4.555,1.379l0.985,2.531
			c0.33-0.129,0.955-0.336,1.88-0.615c0.925-0.266,1.785-0.414,2.569-0.414c1.361,0,2.235,0.12,2.646,0.34
			c0.375,0.22,0.565,0.72,0.565,1.499v0.91c-2.929,0-5.089,0.311-6.484,0.931c-1.896,0.849-2.836,2.204-2.836,4.028
			c0,1.541,0.485,2.807,1.456,3.781c0.975,0.984,2.239,1.471,3.839,1.471c1.625,0,3.035-0.529,4.21-1.605L46.115,21.165
			L46.115,21.165z"/>
		<path fill="#FFDC0D" d="M118.623,10.119c1.16,0.795,1.742,2.336,1.742,4.63c0,3.236-1.096,4.855-3.26,4.855
			c-0.627,0-1.143-0.148-1.553-0.439c-1.189-0.824-1.77-2.398-1.77-4.75c0-3.15,1.115-4.725,3.355-4.725
			C117.697,9.69,118.205,9.838,118.623,10.119z M116.934,22.649c2.35,0,4.262-0.648,5.699-1.971c1.535-1.4,2.32-3.369,2.32-5.931
			c0-2.31-0.58-4.174-1.711-5.599c-1.33-1.665-3.334-2.5-6.014-2.5c-2.381,0-4.277,0.659-5.699,1.969
			c-0.721,0.646-1.285,1.471-1.705,2.441c-0.424,0.969-0.625,2.06-0.625,3.235c0,1.189,0.125,2.281,0.391,3.252
			c0.248,0.969,0.689,1.838,1.314,2.602C112.232,21.825,114.238,22.649,116.934,22.649z"/>
		<path fill="#FFDC0D" d="M136.758,10.124c1.158,0.795,1.74,2.336,1.74,4.63c0,3.235-1.094,4.856-3.26,4.856
			c-0.625,0-1.141-0.15-1.551-0.441c-1.189-0.824-1.771-2.398-1.771-4.749c0-3.15,1.115-4.725,3.357-4.725
			C135.832,9.695,136.338,9.843,136.758,10.124z M135.066,22.655c2.352,0,4.262-0.65,5.701-1.971c1.535-1.4,2.32-3.369,2.32-5.932
			c0-2.31-0.58-4.174-1.713-5.599c-1.33-1.665-3.334-2.5-6.012-2.5c-2.381,0-4.277,0.659-5.701,1.969
			c-0.719,0.646-1.283,1.471-1.703,2.441c-0.426,0.969-0.625,2.06-0.625,3.235c0,1.189,0.123,2.28,0.389,3.251
			c0.25,0.971,0.689,1.84,1.316,2.604C130.367,21.829,132.373,22.655,135.066,22.655z"/>
	</g>
</g>
<g id="NewGradebook" display="none">
	<path display="inline" fill="#FFDC0D" d="M45.114,6.732c0.12,0,0.252,0.002,0.396,0.007c0.145,0.005,0.284,0.014,0.419,0.027
		s0.259,0.027,0.375,0.041c0.114,0.014,0.202,0.029,0.262,0.047v3.88c-0.08-0.018-0.189-0.036-0.329-0.054
		c-0.14-0.018-0.287-0.034-0.442-0.047s-0.307-0.022-0.456-0.027c-0.15-0.004-0.275-0.007-0.375-0.007
		c-0.588,0-1.13,0.068-1.624,0.204c-0.494,0.136-0.918,0.355-1.272,0.658c-0.354,0.303-0.629,0.701-0.823,1.194
		c-0.195,0.493-0.292,1.097-0.292,1.812v7.719h-4.564V7.018h3.457l0.673,2.279h0.225c0.24-0.389,0.499-0.742,0.778-1.058
		c0.279-0.317,0.591-0.586,0.936-0.808c0.344-0.221,0.733-0.394,1.167-0.516S44.555,6.732,45.114,6.732z"/>
	<path display="inline" fill="#FFDC0D" d="M71.917,22.457c-0.858,0-1.642-0.168-2.35-0.502c-0.708-0.334-1.317-0.83-1.826-1.484
		c-0.509-0.656-0.905-1.473-1.189-2.449c-0.285-0.978-0.427-2.108-0.427-3.393c0-1.303,0.142-2.444,0.427-3.426
		c0.284-0.981,0.688-1.805,1.212-2.469c0.524-0.665,1.15-1.165,1.878-1.5c0.728-0.334,1.531-0.502,2.41-0.502
		c0.539,0,1.033,0.057,1.481,0.17c0.449,0.113,0.853,0.271,1.212,0.475c0.359,0.204,0.681,0.439,0.965,0.706
		c0.284,0.267,0.536,0.559,0.755,0.875h0.15c-0.06-0.353-0.115-0.71-0.165-1.072c-0.05-0.307-0.092-0.635-0.127-0.983
		s-0.052-0.672-0.052-0.97V1.075h4.564v21.111H77.35l-0.883-1.967h-0.194c-0.209,0.307-0.449,0.6-0.718,0.875
		c-0.27,0.275-0.582,0.514-0.936,0.713s-0.753,0.357-1.197,0.475S72.476,22.457,71.917,22.457z M73.579,19.16
		c0.539,0,0.998-0.084,1.377-0.25c0.379-0.168,0.686-0.422,0.92-0.76c0.234-0.34,0.409-0.764,0.523-1.27
		c0.115-0.506,0.177-1.099,0.188-1.777v-0.447c0-0.733-0.05-1.384-0.15-1.954s-0.265-1.047-0.494-1.431
		c-0.23-0.384-0.539-0.676-0.928-0.875c-0.389-0.199-0.878-0.299-1.466-0.299c-0.958,0-1.661,0.392-2.11,1.174
		c-0.449,0.782-0.673,1.92-0.673,3.412c0,1.493,0.227,2.612,0.681,3.358S72.611,19.16,73.579,19.16z"/>
	<path display="inline" fill="#FFDC0D" d="M92.975,22.457c-1.197,0-2.301-0.158-3.309-0.475s-1.875-0.793-2.604-1.432
		c-0.728-0.637-1.294-1.441-1.698-2.414c-0.404-0.973-0.606-2.115-0.606-3.426c0-1.33,0.185-2.492,0.554-3.487
		s0.885-1.825,1.55-2.49c0.662-0.665,1.461-1.165,2.395-1.5c0.932-0.334,1.967-0.502,3.104-0.502c1.108,0,2.108,0.152,3.001,0.455
		c0.893,0.303,1.65,0.749,2.275,1.336c0.623,0.588,1.102,1.309,1.436,2.164s0.502,1.834,0.502,2.938v2.008H89.367
		c0.02,0.579,0.122,1.102,0.307,1.566c0.186,0.467,0.444,0.859,0.779,1.182c0.334,0.32,0.737,0.566,1.211,0.738
		c0.475,0.172,1.016,0.258,1.625,0.258c0.508,0,0.989-0.023,1.443-0.074c0.454-0.049,0.896-0.125,1.324-0.225
		c0.43-0.098,0.854-0.223,1.272-0.373c0.419-0.148,0.849-0.322,1.287-0.521v3.201c-0.399,0.191-0.801,0.352-1.204,0.482
		c-0.404,0.131-0.831,0.242-1.28,0.332c-0.448,0.09-0.933,0.156-1.452,0.197C94.161,22.438,93.593,22.457,92.975,22.457z
		 M92.391,9.677c-0.809,0-1.479,0.258-2.014,0.773c-0.533,0.516-0.84,1.325-0.92,2.429h5.822c-0.01-0.461-0.075-0.887-0.195-1.275
		c-0.119-0.389-0.299-0.726-0.539-1.011c-0.238-0.285-0.538-0.509-0.897-0.672C93.289,9.758,92.869,9.677,92.391,9.677z"/>
	<path display="inline" fill="#FFDC0D" d="M112.354,6.732c0.858,0,1.642,0.167,2.35,0.502c0.708,0.335,1.317,0.833,1.826,1.493
		s0.905,1.479,1.189,2.456c0.284,0.977,0.427,2.108,0.427,3.392c0,1.302-0.143,2.445-0.427,3.425
		c-0.284,0.982-0.686,1.803-1.204,2.463c-0.52,0.66-1.143,1.158-1.871,1.492s-1.532,0.502-2.409,0.502
		c-0.56,0-1.056-0.055-1.489-0.162c-0.435-0.109-0.821-0.254-1.16-0.434c-0.339-0.182-0.636-0.387-0.891-0.619
		c-0.254-0.23-0.486-0.471-0.695-0.725h-0.314l-0.764,1.668h-3.487V1.075H108v4.912c0,0.298-0.011,0.622-0.03,0.97
		c-0.021,0.348-0.04,0.671-0.06,0.97c-0.03,0.353-0.061,0.706-0.09,1.059H108c0.209-0.316,0.448-0.611,0.718-0.882
		c0.27-0.271,0.581-0.509,0.936-0.712s0.756-0.364,1.205-0.481C111.307,6.792,111.806,6.732,112.354,6.732z M110.813,10.043
		c-0.509,0-0.94,0.084-1.295,0.251c-0.354,0.167-0.641,0.418-0.86,0.753c-0.22,0.335-0.379,0.758-0.479,1.269
		c-0.101,0.511-0.16,1.106-0.18,1.784v0.448c0,0.733,0.047,1.384,0.142,1.954c0.095,0.57,0.252,1.048,0.472,1.431
		c0.22,0.385,0.511,0.678,0.875,0.877c0.364,0.197,0.816,0.297,1.354,0.297c0.908,0,1.574-0.391,1.998-1.174
		c0.424-0.781,0.637-1.919,0.637-3.411c0-1.493-0.213-2.612-0.637-3.358C112.417,10.416,111.741,10.043,110.813,10.043z"/>
	<path display="inline" fill="#FFDC0D" d="M163.179,13.937l1.677-2.307l4.085-4.613h5.148l-6.046,6.58l6.436,8.588h-5.269
		l-4.07-5.833l-1.781,1.113v4.721h-4.564V1.075h4.564v9.416l-0.239,3.446H163.179z"/>
	<path display="inline" fill="#FFDC0D" d="M19.015,17.175c-0.879-1.439-1.315-3.365-1.315-5.751c0-2.319,0.53-4.144,1.626-5.469
		C19.86,5.324,20.5,4.84,21.255,4.5c0.75-0.341,1.55-0.514,2.411-0.514c0.86,0,1.595,0.044,2.19,0.104
		c1.35,0.145,2.635,0.555,3.87,1.221l0.14-3.62c-0.47-0.085-0.905-0.16-1.285-0.251c-0.391-0.085-0.936-0.19-1.641-0.31
		c-0.719-0.115-1.77-0.189-3.181-0.189c-3.209,0-5.764,0.885-7.645,2.62C14.036,5.47,13,8.249,13,11.879
		c0,3.295,0.896,5.887,2.696,7.782c0.875,0.944,1.939,1.68,3.224,2.179c1.286,0.501,2.785,0.751,4.525,0.751
		c1.739,0,3.399-0.221,4.98-0.665c0.595-0.145,1.095-0.295,1.52-0.439c0.405-0.131,0.785-0.206,1.096-0.206v-9.983H23.46v3.044
		h3.306v4.632c-0.97,0.385-2.05,0.574-3.24,0.574c-1.189,0-2.129-0.206-2.82-0.636C20.015,18.501,19.45,17.91,19.015,17.175z"/>
	<path display="inline" fill="#FFDC0D" d="M54.09,15.839c0.99-0.514,2.27-0.778,3.84-0.778v3.659c-0.08,0.091-0.205,0.19-0.379,0.28
		c-0.67,0.37-1.375,0.546-2.125,0.546c-0.69,0-1.225-0.176-1.6-0.53c-0.205-0.176-0.36-0.396-0.47-0.66
		c-0.125-0.266-0.17-0.575-0.17-0.916C53.185,16.674,53.48,16.146,54.09,15.839z M58.115,21.105c0,0.66,0.16,1.1,0.485,1.305
		c0.175,0.121,0.565,0.181,1.175,0.181h2.584V12.25c0-2.145-0.55-3.66-1.615-4.515c-0.53-0.425-1.22-0.721-2.035-0.895
		c-0.829-0.165-1.69-0.25-2.564-0.25c-0.896,0-1.66,0.055-2.305,0.159c-1.925,0.325-3.445,0.78-4.555,1.379l0.985,2.531
		c0.33-0.129,0.955-0.336,1.88-0.615c0.925-0.266,1.785-0.414,2.569-0.414c1.361,0,2.235,0.12,2.646,0.34
		c0.375,0.22,0.565,0.72,0.565,1.499v0.91c-2.929,0-5.089,0.311-6.484,0.931c-1.896,0.849-2.836,2.204-2.836,4.029
		c0,1.54,0.485,2.806,1.456,3.78c0.975,0.984,2.239,1.471,3.839,1.471c1.625,0,3.035-0.529,4.21-1.605L58.115,21.105L58.115,21.105z
		"/>
	<path display="inline" fill="#FFDC0D" d="M130.623,10.06c1.159,0.795,1.741,2.336,1.741,4.63c0,3.236-1.095,4.856-3.26,4.856
		c-0.626,0-1.142-0.149-1.552-0.44c-1.189-0.824-1.771-2.398-1.771-4.75c0-3.15,1.115-4.725,3.356-4.725
		C129.697,9.631,130.204,9.779,130.623,10.06z M128.933,22.591c2.351,0,4.262-0.649,5.7-1.971c1.535-1.4,2.32-3.369,2.32-5.931
		c0-2.31-0.58-4.174-1.712-5.599c-1.33-1.665-3.334-2.5-6.013-2.5c-2.381,0-4.277,0.659-5.7,1.969
		c-0.72,0.646-1.284,1.471-1.704,2.441c-0.425,0.969-0.625,2.06-0.625,3.235c0,1.189,0.124,2.281,0.391,3.251
		c0.248,0.97,0.688,1.839,1.314,2.603C124.232,21.766,126.238,22.591,128.933,22.591z"/>
	<path display="inline" fill="#FFDC0D" d="M148.757,10.065c1.159,0.795,1.741,2.336,1.741,4.63c0,3.236-1.095,4.856-3.26,4.856
		c-0.626,0-1.142-0.149-1.552-0.44c-1.189-0.824-1.771-2.398-1.771-4.75c0-3.15,1.115-4.725,3.356-4.725
		C147.831,9.636,148.338,9.784,148.757,10.065z M147.066,22.596c2.351,0,4.262-0.649,5.7-1.971c1.535-1.4,2.32-3.369,2.32-5.931
		c0-2.31-0.58-4.174-1.712-5.599c-1.33-1.665-3.334-2.5-6.013-2.5c-2.381,0-4.277,0.659-5.7,1.969
		c-0.72,0.646-1.284,1.471-1.704,2.441c-0.425,0.969-0.625,2.06-0.625,3.235c0,1.189,0.124,2.281,0.39,3.251
		c0.249,0.97,0.689,1.839,1.315,2.603C142.366,21.771,144.372,22.596,147.066,22.596z"/>
	<g display="inline">
		<path fill="#FFFFFF" d="M4.049,22.561v-1.148l0.788-0.006c-0.325-0.488-0.559-1.043-0.703-1.664
			c-0.057-0.258-0.085-0.527-0.085-0.809c0-0.283,0.042-0.543,0.126-0.785s0.229-0.443,0.436-0.604
			c0.394-0.301,1.079-0.451,2.055-0.451h4.157v1.289H6.661c-0.585,0-0.989,0.078-1.212,0.234C5.223,18.771,5.11,19.055,5.11,19.46
			c0,0.44,0.138,0.904,0.413,1.39c0.083,0.147,0.179,0.289,0.288,0.422h5.012v1.289H4.049z"/>
		<path fill="#FFFFFF" d="M7.676,14.269c1.156-0.059,1.848-0.484,2.074-1.277c0.07-0.238,0.105-0.453,0.105-0.645
			s-0.01-0.366-0.029-0.524c-0.019-0.158-0.045-0.315-0.076-0.472c-0.078-0.363-0.164-0.627-0.258-0.791l0.738-0.246
			c0.266,0.324,0.449,0.867,0.551,1.629c0.031,0.219,0.047,0.428,0.047,0.627c0,0.945-0.301,1.676-0.902,2.191
			c-0.594,0.512-1.427,0.768-2.499,0.768c-0.991,0-1.789-0.252-2.395-0.756c-0.656-0.547-0.983-1.301-0.983-2.262
			c0-0.684,0.202-1.242,0.606-1.676c0.454-0.477,1.072-0.727,1.854-0.75c0.58,0,0.969,0.021,1.167,0.064V14.269z M6.574,11.286
			c-1.074,0-1.611,0.443-1.611,1.33c0,0.941,0.619,1.482,1.857,1.623v-2.947C6.738,11.288,6.656,11.286,6.574,11.286z"/>
		<path fill="#FFFFFF" d="M4.049,9.394v-1.29l4.079-1.078l1.276-0.293l-1.271-0.27L4.049,5.351V4.067L8.128,2.96l1.3-0.287
			L8.169,2.38l-4.12-1.043v-1.26l6.867,2.039v1.189L6.551,4.501L5.484,4.718L6.55,4.952l4.365,1.178v1.225L4.049,9.394z"/>
	</g>
</g>
<g id="original" display="none">
	<path display="inline" fill="#FFDC0D" d="M19.015,17.175c-0.879-1.439-1.315-3.365-1.315-5.751c0-2.319,0.53-4.144,1.626-5.469
		C19.86,5.324,20.5,4.84,21.255,4.5c0.75-0.341,1.55-0.514,2.411-0.514c0.86,0,1.595,0.044,2.19,0.104
		c1.35,0.145,2.635,0.555,3.87,1.221l0.14-3.62c-0.47-0.085-0.905-0.16-1.285-0.251c-0.391-0.085-0.936-0.19-1.641-0.31
		c-0.719-0.115-1.77-0.189-3.181-0.189c-3.209,0-5.764,0.885-7.645,2.62C14.036,5.47,13,8.249,13,11.879
		c0,3.295,0.896,5.887,2.696,7.782c0.875,0.944,1.939,1.68,3.224,2.179c1.286,0.501,2.785,0.751,4.525,0.751
		c1.739,0,3.399-0.221,4.98-0.665c0.595-0.145,1.095-0.295,1.52-0.439c0.405-0.131,0.785-0.206,1.096-0.206v-9.983H23.46v3.044
		h3.306v4.632c-0.97,0.385-2.05,0.574-3.24,0.574c-1.189,0-2.129-0.206-2.82-0.636C20.015,18.501,19.45,17.91,19.015,17.175z"/>
	<path display="inline" fill="#FFDC0D" d="M38.09,15.839c0.99-0.514,2.27-0.778,3.84-0.778v3.659c-0.08,0.091-0.205,0.19-0.379,0.28
		c-0.67,0.37-1.375,0.546-2.125,0.546c-0.69,0-1.225-0.176-1.6-0.53c-0.205-0.176-0.36-0.396-0.47-0.66
		c-0.125-0.266-0.17-0.575-0.17-0.916C37.185,16.674,37.48,16.146,38.09,15.839z M42.115,21.105c0,0.66,0.16,1.1,0.485,1.305
		c0.175,0.121,0.565,0.181,1.175,0.181h2.584V12.25c0-2.145-0.55-3.66-1.615-4.515c-0.53-0.425-1.22-0.721-2.035-0.895
		c-0.829-0.165-1.69-0.25-2.564-0.25c-0.896,0-1.66,0.055-2.305,0.159c-1.925,0.325-3.445,0.78-4.555,1.379l0.985,2.531
		c0.33-0.129,0.955-0.336,1.88-0.615c0.925-0.266,1.785-0.414,2.569-0.414c1.361,0,2.235,0.12,2.646,0.34
		c0.375,0.22,0.565,0.72,0.565,1.499v0.91c-2.929,0-5.089,0.311-6.484,0.931c-1.896,0.849-2.836,2.204-2.836,4.029
		c0,1.54,0.485,2.806,1.456,3.78c0.975,0.984,2.239,1.471,3.839,1.471c1.625,0,3.035-0.529,4.21-1.605L42.115,21.105L42.115,21.105z
		"/>
	<path display="inline" fill="#FFDC0D" d="M49.056,15.81c0,2.312,0.299,3.94,0.924,4.896c0.784,1.267,2.255,1.886,4.401,1.886
		c0.394,0,0.798-0.029,1.24-0.104c1.345-0.236,2.505-0.646,3.474-1.268v0.651c0,0.304,0.095,0.499,0.28,0.585
		c0.189,0.089,0.455,0.135,0.8,0.135h2.929v-16H58.67v12.04c-0.125,0.104-0.295,0.209-0.485,0.31
		c-0.75,0.416-1.484,0.605-2.22,0.605c-0.924,0-1.55-0.206-1.88-0.636c-0.409-0.499-0.595-1.484-0.595-2.955V6.591h-4.434V15.81z"/>
	<path display="inline" fill="#FFDC0D" d="M74.274,19.546c-1.364,0-2.399-0.426-3.1-1.296c-0.379-0.439-0.644-0.984-0.813-1.62
		c-0.191-0.615-0.271-1.38-0.271-2.29c0-0.899,0.125-1.665,0.41-2.31c0.72-1.59,1.956-2.399,3.725-2.399
		c1.35,0,2.416,0.265,3.195,0.765l0.55-3.085c-0.14-0.075-0.345-0.165-0.595-0.25c-0.955-0.311-2.16-0.47-3.604-0.47
		c-2.63,0-4.666,0.789-6.105,2.38c-1.315,1.453-1.976,3.399-1.976,5.809c0,2.341,0.631,4.19,1.896,5.575
		c1.335,1.5,3.209,2.235,5.656,2.235c0.5,0,1-0.03,1.489-0.104c1.565-0.206,2.725-0.614,3.476-1.25l-0.626-2.381
		C76.73,19.325,75.62,19.546,74.274,19.546z"/>
	<path display="inline" fill="#FFDC0D" d="M80.305,22.591h4.436V11.59c0.25-0.21,0.516-0.4,0.795-0.56
		c0.846-0.44,1.675-0.675,2.49-0.675c0.865,0,1.475,0.25,1.819,0.72c0.345,0.5,0.53,1.38,0.53,2.66v8.855h4.435v-9.81
		c0-2.236-0.456-3.855-1.364-4.855c-0.441-0.499-0.986-0.834-1.615-1.044c-0.641-0.19-1.279-0.29-1.939-0.29
		c-0.654,0-1.271,0.069-1.814,0.204c-1.381,0.351-2.572,0.94-3.572,1.78L84.74,5.75V0h-4.436L80.305,22.591L80.305,22.591z"/>
	<path display="inline" fill="#FFDC0D" d="M106.305,10.06c1.159,0.795,1.741,2.336,1.741,4.63c0,3.236-1.095,4.856-3.26,4.856
		c-0.626,0-1.142-0.149-1.552-0.44c-1.189-0.824-1.771-2.398-1.771-4.75c0-3.15,1.115-4.725,3.356-4.725
		C105.379,9.631,105.886,9.779,106.305,10.06z M104.614,22.591c2.351,0,4.262-0.649,5.7-1.971c1.535-1.4,2.32-3.369,2.32-5.931
		c0-2.31-0.58-4.174-1.712-5.599c-1.33-1.665-3.334-2.5-6.013-2.5c-2.381,0-4.277,0.659-5.7,1.969
		C98.49,9.205,97.926,10.03,97.506,11c-0.425,0.969-0.625,2.06-0.625,3.235c0,1.189,0.124,2.281,0.39,3.251
		c0.249,0.97,0.689,1.839,1.315,2.603C99.914,21.766,101.92,22.591,104.614,22.591z"/>
	<path display="inline" fill="#FFDC0D" d="M118.29,20.326c-1.454-0.223-2.664-0.606-3.62-1.166l-0.751,2.386
		c0.19,0.115,0.472,0.235,0.86,0.351c1.477,0.475,3.195,0.694,5.199,0.694c2.195,0,3.914-0.446,5.187-1.354
		c0.625-0.454,1.108-1.029,1.47-1.734c0.346-0.705,0.535-1.529,0.535-2.501c0-0.97-0.314-1.87-0.926-2.72
		c-0.299-0.386-0.639-0.736-1.02-1.062c-0.391-0.324-0.814-0.63-1.25-0.924c-0.438-0.281-0.91-0.545-1.381-0.796
		c-0.47-0.25-1.248-0.63-2.314-1.161c-1.063-0.514-1.864-1.014-2.381-1.499c-0.363-0.294-0.614-0.634-0.769-1
		c-0.155-0.355-0.235-0.779-0.235-1.249c0-0.47,0.109-0.871,0.359-1.195c0.661-0.896,1.91-1.351,3.762-1.351
		c1.719,0,3.193,0.365,4.43,1.085l0.646-2.259c-0.471-0.266-1.087-0.491-1.821-0.666c-0.42-0.085-0.903-0.16-1.439-0.221
		c-0.528-0.059-1.283-0.104-2.253-0.104c-0.974,0-1.94,0.165-2.946,0.491c-2.505,0.834-3.755,2.425-3.755,4.774
		c0,1.354,0.56,2.59,1.688,3.734c0.502,0.515,1.08,0.975,1.735,1.37c0.646,0.41,1.585,0.895,2.82,1.455
		c1.239,0.575,2.13,1.074,2.694,1.515c0.83,0.65,1.256,1.44,1.256,2.372c0,1.894-1.445,2.834-4.313,2.834
		C119.261,20.426,118.773,20.396,118.29,20.326z"/>
	<path display="inline" fill="#FFDC0D" d="M139.7,14.189c0,2.001-0.455,3.561-1.347,4.681c-0.846,1.04-1.929,1.556-3.274,1.556
		c-1.409,0-2.38-0.236-2.908-0.706v-9.614c1.124-0.9,2.284-1.354,3.46-1.354C138.34,8.751,139.7,10.575,139.7,14.189z
		 M140.67,20.189c1.475-1.569,2.21-3.631,2.21-6.175c0-2.395-0.646-4.264-1.909-5.604c-0.596-0.615-1.271-1.069-2.035-1.365
		c-0.785-0.295-1.662-0.454-2.666-0.454c-1,0-1.99,0.22-2.929,0.659c-0.45,0.205-0.94,0.545-1.471,1.03V6.591h-2.835V32h3.136
		v-7.749l-0.051-2.046c0.8,0.265,1.739,0.386,2.834,0.386s2.146-0.212,3.151-0.62C139.105,21.561,139.951,20.955,140.67,20.189z"/>
	<path display="inline" fill="#FFDC0D" d="M148.188,16.66c0.162-0.174,0.362-0.335,0.584-0.486c0.22-0.128,0.453-0.264,0.732-0.394
		c0.286-0.12,0.801-0.279,1.587-0.455c0.779-0.181,1.718-0.265,2.833-0.265v4.279c-0.095,0.085-0.249,0.206-0.484,0.321
		c-0.938,0.514-1.931,0.765-2.959,0.765c-1.864,0-2.791-0.78-2.791-2.366C147.689,17.53,147.846,17.063,148.188,16.66z
		 M147.58,22.279c0.595,0.207,1.205,0.312,1.799,0.312c0.596,0,1.13-0.046,1.586-0.135c1.316-0.235,2.346-0.675,3.131-1.326v0.104
		c0,0.604,0.154,1,0.485,1.189c0.188,0.12,0.578,0.166,1.188,0.166h1.271V11.545c0-1.914-0.534-3.25-1.58-4.015
		c-0.521-0.355-1.13-0.604-1.835-0.735c-0.705-0.135-1.425-0.204-2.175-0.204c-0.755,0-1.44,0.055-2.071,0.175
		c-1.895,0.34-3.238,0.734-4.055,1.205l0.77,1.9c0.188-0.12,0.438-0.251,0.782-0.386c1.299-0.485,2.489-0.734,3.584-0.734
		c1.255,0,2.13,0.159,2.601,0.454c0.564,0.37,0.863,1.075,0.863,2.119v1.571h-1.488c-3.461,0-5.779,0.794-6.97,2.354
		c-0.581,0.765-0.86,1.589-0.86,2.469c0,0.888,0.109,1.621,0.358,2.191c0.251,0.573,0.597,1.06,1.036,1.46
		C146.436,21.766,146.971,22.075,147.58,22.279z"/>
	<path display="inline" fill="#FFDC0D" d="M171.031,7.355c-0.883-0.501-2.196-0.765-3.981-0.765c-2.521,0-4.479,0.789-5.854,2.364
		c-1.319,1.469-1.961,3.415-1.961,5.794c0,2.313,0.611,4.176,1.851,5.591c1.281,1.5,3.036,2.251,5.261,2.251
		c2.195,0,3.855-0.461,4.965-1.386l-0.645-1.704c-0.188,0.119-0.407,0.219-0.669,0.324c-1.052,0.41-2.116,0.601-3.181,0.601
		c-1.381,0-2.49-0.53-3.319-1.586c-0.847-1.062-1.256-2.469-1.256-4.22c0-2.016,0.519-3.56,1.55-4.62
		c0.831-0.825,1.865-1.249,3.104-1.249c1.58,0,2.785,0.34,3.629,1L171.031,7.355z"/>
	<path display="inline" fill="#FFDC0D" d="M182.07,13.176h-7.141c0.344-2.94,1.646-4.425,3.93-4.425
		c2.146,0,3.226,1.279,3.226,3.839C182.085,12.795,182.07,12.984,182.07,13.176z M184.846,15.339
		c0.09-0.469,0.154-1.414,0.154-2.809c-0.064-1.885-0.674-3.386-1.814-4.485c-1.064-0.97-2.416-1.454-4.062-1.454
		c-2.329,0-4.164,0.779-5.479,2.319c-1.22,1.445-1.83,3.325-1.83,5.65c0,2.529,0.61,4.499,1.859,5.895
		c1.241,1.426,3.012,2.136,5.313,2.136c0.469,0,0.988-0.03,1.519-0.104c1.836-0.206,3.151-0.604,3.931-1.189l-0.595-1.706
		c-0.405,0.222-1.03,0.41-1.909,0.585c-0.377,0.09-0.765,0.151-1.146,0.195c-0.392,0.04-0.812,0.056-1.267,0.056
		c-0.47,0-0.988-0.069-1.563-0.251c-1.931-0.529-2.961-2.13-3.085-4.836L184.846,15.339L184.846,15.339z"/>
	<g display="inline">
		<path fill="#FFFFFF" d="M4.049,22.561v-1.148l0.788-0.006c-0.325-0.488-0.559-1.043-0.703-1.664
			c-0.057-0.258-0.085-0.527-0.085-0.809c0-0.283,0.042-0.543,0.126-0.785s0.229-0.443,0.436-0.604
			c0.394-0.301,1.079-0.451,2.055-0.451h4.157v1.289H6.661c-0.585,0-0.989,0.078-1.212,0.234C5.223,18.771,5.11,19.055,5.11,19.46
			c0,0.44,0.138,0.904,0.413,1.39c0.083,0.147,0.179,0.289,0.288,0.422h5.012v1.289H4.049z"/>
		<path fill="#FFFFFF" d="M7.676,14.269c1.156-0.059,1.848-0.484,2.074-1.277c0.07-0.238,0.105-0.453,0.105-0.645
			s-0.01-0.366-0.029-0.524c-0.019-0.158-0.045-0.315-0.076-0.472c-0.078-0.363-0.164-0.627-0.258-0.791l0.738-0.246
			c0.266,0.324,0.449,0.867,0.551,1.629c0.031,0.219,0.047,0.428,0.047,0.627c0,0.945-0.301,1.676-0.902,2.191
			c-0.594,0.512-1.427,0.768-2.499,0.768c-0.991,0-1.789-0.252-2.395-0.756c-0.656-0.547-0.983-1.301-0.983-2.262
			c0-0.684,0.202-1.242,0.606-1.676c0.454-0.477,1.072-0.727,1.854-0.75c0.58,0,0.969,0.021,1.167,0.064V14.269z M6.574,11.286
			c-1.074,0-1.611,0.443-1.611,1.33c0,0.941,0.619,1.482,1.857,1.623v-2.947C6.738,11.288,6.656,11.286,6.574,11.286z"/>
		<path fill="#FFFFFF" d="M4.049,9.394v-1.29l4.079-1.078l1.276-0.293l-1.271-0.27L4.049,5.351V4.067L8.128,2.96l1.3-0.287
			L8.169,2.38l-4.12-1.043v-1.26l6.867,2.039v1.189L6.551,4.501L5.484,4.718L6.55,4.952l4.365,1.178v1.225L4.049,9.394z"/>
	</g>
</g>
<g id="FONTINFO" display="none">
	<g display="inline">
		<path fill="#3810FF" d="M18.873-19.895h8.68V-9.61c-0.579,0.172-1.162,0.328-1.751,0.468c-0.589,0.141-1.2,0.258-1.833,0.353
			c-0.634,0.096-1.297,0.17-1.991,0.225c-0.693,0.054-1.429,0.081-2.208,0.081c-1.636,0-3.085-0.22-4.348-0.658
			s-2.325-1.09-3.188-1.954c-0.863-0.863-1.519-1.931-1.968-3.202c-0.449-1.271-0.674-2.738-0.674-4.402
			c0-1.556,0.25-2.962,0.749-4.22c0.499-1.257,1.234-2.327,2.208-3.208c0.973-0.882,2.17-1.561,3.592-2.035
			c1.421-0.475,3.05-0.712,4.886-0.712c1.167,0,2.31,0.113,3.427,0.339c1.117,0.227,2.14,0.521,3.068,0.882l-1.542,3.365
			c-0.679-0.308-1.444-0.565-2.297-0.773s-1.749-0.312-2.686-0.312c-1.018,0-1.934,0.161-2.747,0.481
			c-0.813,0.321-1.509,0.776-2.087,1.364c-0.579,0.588-1.023,1.298-1.332,2.13c-0.31,0.833-0.464,1.759-0.464,2.781
			c0,0.977,0.107,1.87,0.322,2.68c0.214,0.81,0.551,1.508,1.01,2.096c0.458,0.588,1.05,1.045,1.773,1.37
			c0.723,0.326,1.588,0.488,2.596,0.488c0.659,0,1.215-0.026,1.669-0.081c0.454-0.055,0.88-0.117,1.279-0.189v-4.139h-4.146V-19.895
			z"/>
		<path fill="#3810FF" d="M41.127-24.209c0.12,0,0.252,0.002,0.396,0.007c0.145,0.005,0.284,0.014,0.419,0.027
			s0.259,0.027,0.375,0.041c0.114,0.014,0.202,0.029,0.262,0.047v3.88c-0.08-0.018-0.189-0.036-0.329-0.054
			c-0.14-0.018-0.287-0.034-0.442-0.047s-0.307-0.022-0.456-0.027c-0.15-0.004-0.275-0.007-0.375-0.007
			c-0.588,0-1.13,0.068-1.624,0.204c-0.494,0.136-0.918,0.355-1.272,0.658c-0.354,0.303-0.629,0.701-0.823,1.194
			c-0.195,0.493-0.292,1.097-0.292,1.812v7.72h-4.564v-15.168h3.457l0.673,2.279h0.225c0.24-0.389,0.499-0.742,0.778-1.058
			c0.279-0.317,0.591-0.586,0.936-0.808c0.344-0.221,0.733-0.394,1.167-0.516S40.568-24.209,41.127-24.209z"/>
		<path fill="#3810FF" d="M55.121-8.755l-0.883-2.063h-0.134c-0.33,0.407-0.659,0.758-0.988,1.052
			c-0.33,0.294-0.688,0.536-1.078,0.726c-0.389,0.19-0.826,0.33-1.31,0.421c-0.484,0.09-1.045,0.136-1.684,0.136
			c-0.679,0-1.307-0.098-1.886-0.292s-1.08-0.488-1.504-0.882c-0.424-0.394-0.756-0.891-0.996-1.492
			c-0.239-0.602-0.359-1.313-0.359-2.138c0-1.609,0.569-2.796,1.706-3.561c1.137-0.764,2.838-1.187,5.104-1.269l2.664-0.081v-1.14
			c0-0.625-0.2-1.085-0.599-1.384c-0.399-0.298-0.958-0.448-1.676-0.448c-0.719,0-1.419,0.095-2.103,0.285s-1.369,0.443-2.058,0.76
			l-1.482-2.741c0.838-0.425,1.766-0.76,2.784-1.004c1.018-0.244,2.085-0.366,3.203-0.366c2.085,0,3.684,0.443,4.797,1.33
			c1.112,0.886,1.668,2.234,1.668,4.043v10.108H55.121z M53.773-15.783l-1.511,0.054c-0.609,0.018-1.123,0.09-1.542,0.217
			c-0.419,0.127-0.756,0.296-1.01,0.509c-0.254,0.213-0.439,0.466-0.554,0.76c-0.115,0.294-0.172,0.622-0.172,0.983
			c0,0.634,0.17,1.084,0.509,1.351c0.339,0.267,0.783,0.4,1.332,0.4c0.419,0,0.808-0.065,1.167-0.197
			c0.359-0.131,0.671-0.325,0.936-0.583c0.264-0.258,0.471-0.574,0.621-0.95c0.149-0.375,0.224-0.807,0.224-1.295V-15.783z"/>
		<path fill="#3810FF" d="M67.931-8.484c-0.858,0-1.642-0.168-2.35-0.502c-0.708-0.335-1.317-0.83-1.826-1.485
			c-0.509-0.656-0.905-1.473-1.189-2.449c-0.285-0.977-0.427-2.107-0.427-3.392c0-1.303,0.142-2.444,0.427-3.426
			c0.284-0.981,0.688-1.805,1.212-2.469c0.524-0.665,1.15-1.165,1.878-1.5c0.728-0.334,1.531-0.502,2.41-0.502
			c0.539,0,1.033,0.057,1.481,0.17c0.449,0.113,0.853,0.271,1.212,0.475c0.359,0.204,0.681,0.439,0.965,0.706
			c0.284,0.267,0.536,0.559,0.755,0.875h0.15c-0.06-0.353-0.115-0.71-0.165-1.072c-0.05-0.307-0.092-0.635-0.127-0.983
			s-0.052-0.672-0.052-0.97v-4.857h4.564v21.111h-3.487l-0.883-1.968h-0.194c-0.209,0.308-0.449,0.6-0.718,0.876
			c-0.27,0.275-0.582,0.513-0.936,0.712s-0.753,0.357-1.197,0.475C68.991-8.542,68.49-8.484,67.931-8.484z M69.592-11.781
			c0.539,0,0.998-0.084,1.377-0.251c0.379-0.167,0.686-0.421,0.92-0.76c0.234-0.34,0.409-0.763,0.523-1.269
			c0.115-0.507,0.177-1.099,0.188-1.778v-0.447c0-0.733-0.05-1.384-0.15-1.954s-0.265-1.047-0.494-1.431
			c-0.23-0.384-0.539-0.676-0.928-0.875c-0.389-0.199-0.878-0.299-1.466-0.299c-0.958,0-1.661,0.392-2.11,1.174
			c-0.449,0.782-0.673,1.92-0.673,3.412c0,1.493,0.227,2.611,0.681,3.358C67.914-12.154,68.625-11.781,69.592-11.781z"/>
		<path fill="#3810FF" d="M88.988-8.484c-1.197,0-2.3-0.158-3.308-0.475c-1.008-0.317-1.875-0.794-2.604-1.432
			c-0.728-0.638-1.294-1.442-1.698-2.415c-0.404-0.973-0.606-2.114-0.606-3.426c0-1.33,0.185-2.492,0.554-3.487
			s0.885-1.825,1.549-2.49c0.663-0.665,1.461-1.165,2.395-1.5c0.933-0.334,1.968-0.502,3.105-0.502c1.108,0,2.108,0.152,3.001,0.455
			c0.893,0.303,1.651,0.749,2.275,1.336c0.623,0.588,1.102,1.309,1.437,2.164c0.334,0.855,0.501,1.834,0.501,2.938v2.008H85.381
			c0.02,0.579,0.122,1.102,0.307,1.567c0.185,0.466,0.444,0.859,0.778,1.181c0.334,0.321,0.738,0.567,1.212,0.739
			c0.474,0.172,1.015,0.258,1.624,0.258c0.509,0,0.99-0.024,1.444-0.074s0.896-0.125,1.325-0.225
			c0.429-0.099,0.853-0.224,1.272-0.373c0.419-0.148,0.848-0.323,1.287-0.521v3.201c-0.399,0.19-0.801,0.351-1.205,0.482
			c-0.404,0.131-0.831,0.241-1.28,0.332c-0.449,0.09-0.933,0.156-1.452,0.196C90.175-8.504,89.606-8.484,88.988-8.484z
			 M88.404-21.265c-0.808,0-1.479,0.258-2.013,0.773s-0.84,1.325-0.92,2.429h5.822c-0.01-0.461-0.075-0.887-0.194-1.275
			c-0.12-0.389-0.299-0.726-0.539-1.011c-0.239-0.285-0.539-0.509-0.898-0.672C89.302-21.183,88.883-21.265,88.404-21.265z"/>
		<path fill="#3810FF" d="M108.368-24.209c0.858,0,1.642,0.167,2.35,0.502c0.708,0.335,1.317,0.833,1.826,1.493
			s0.905,1.479,1.189,2.456c0.284,0.977,0.427,2.108,0.427,3.392c0,1.302-0.143,2.444-0.427,3.426s-0.686,1.803-1.204,2.463
			c-0.52,0.66-1.143,1.157-1.871,1.492c-0.729,0.334-1.532,0.502-2.409,0.502c-0.56,0-1.056-0.055-1.489-0.163
			c-0.435-0.108-0.821-0.253-1.16-0.434c-0.339-0.182-0.636-0.387-0.891-0.618c-0.254-0.23-0.486-0.472-0.695-0.726h-0.314
			l-0.764,1.669h-3.487v-21.111h4.565v4.912c0,0.298-0.011,0.622-0.03,0.97c-0.021,0.348-0.04,0.671-0.06,0.97
			c-0.03,0.353-0.061,0.706-0.09,1.059h0.18c0.209-0.316,0.448-0.611,0.718-0.882c0.27-0.271,0.581-0.509,0.936-0.712
			s0.756-0.364,1.205-0.481C107.32-24.15,107.819-24.209,108.368-24.209z M106.827-20.898c-0.509,0-0.94,0.084-1.295,0.251
			c-0.354,0.167-0.641,0.418-0.86,0.753c-0.22,0.335-0.379,0.758-0.479,1.269c-0.101,0.511-0.16,1.106-0.18,1.784v0.448
			c0,0.733,0.047,1.384,0.142,1.954c0.095,0.57,0.252,1.047,0.472,1.431c0.22,0.385,0.511,0.677,0.875,0.876
			c0.364,0.198,0.816,0.298,1.354,0.298c0.908,0,1.574-0.391,1.998-1.174c0.424-0.782,0.637-1.919,0.637-3.412
			c0-1.493-0.213-2.612-0.637-3.358C108.431-20.525,107.755-20.898,106.827-20.898z"/>
		<path fill="#3810FF" d="M132.508-16.367c0,1.267-0.177,2.388-0.531,3.364c-0.354,0.978-0.863,1.801-1.526,2.47
			c-0.663,0.67-1.472,1.179-2.425,1.526c-0.952,0.348-2.022,0.522-3.21,0.522c-1.107,0-2.125-0.175-3.053-0.522
			s-1.729-0.856-2.402-1.526c-0.673-0.669-1.199-1.492-1.579-2.47c-0.379-0.977-0.568-2.098-0.568-3.364
			c0-1.257,0.177-2.375,0.531-3.351c0.354-0.977,0.863-1.798,1.526-2.463c0.664-0.665,1.47-1.169,2.417-1.513
			c0.948-0.344,2.021-0.516,3.218-0.516c1.107,0,2.125,0.172,3.053,0.516c0.929,0.344,1.729,0.848,2.402,1.513
			c0.674,0.665,1.2,1.486,1.579,2.463C132.318-18.741,132.508-17.624,132.508-16.367z M121.883-16.367
			c0,1.511,0.233,2.647,0.703,3.412c0.469,0.765,1.231,1.146,2.29,1.146c1.047,0,1.806-0.385,2.274-1.153s0.703-1.904,0.703-3.405
			c0-1.511-0.234-2.639-0.703-3.385s-1.237-1.119-2.305-1.119c-1.048,0-1.804,0.373-2.268,1.119S121.883-17.877,121.883-16.367z"/>
		<path fill="#3810FF" d="M150.871-16.367c0,1.267-0.177,2.388-0.531,3.364c-0.354,0.978-0.863,1.801-1.526,2.47
			c-0.663,0.67-1.472,1.179-2.425,1.526c-0.952,0.348-2.022,0.522-3.21,0.522c-1.107,0-2.125-0.175-3.053-0.522
			s-1.729-0.856-2.402-1.526c-0.673-0.669-1.199-1.492-1.579-2.47c-0.379-0.977-0.568-2.098-0.568-3.364
			c0-1.257,0.177-2.375,0.531-3.351c0.354-0.977,0.863-1.798,1.526-2.463c0.664-0.665,1.47-1.169,2.417-1.513
			c0.948-0.344,2.021-0.516,3.218-0.516c1.107,0,2.125,0.172,3.053,0.516c0.929,0.344,1.729,0.848,2.402,1.513
			c0.674,0.665,1.2,1.486,1.579,2.463C150.682-18.741,150.871-17.624,150.871-16.367z M140.246-16.367
			c0,1.511,0.233,2.647,0.703,3.412c0.469,0.765,1.231,1.146,2.29,1.146c1.047,0,1.806-0.385,2.274-1.153s0.703-1.904,0.703-3.405
			c0-1.511-0.234-2.639-0.703-3.385s-1.237-1.119-2.305-1.119c-1.048,0-1.804,0.373-2.268,1.119S140.246-17.877,140.246-16.367z"/>
		<path fill="#3810FF" d="M159.192-17.004l1.677-2.307l4.085-4.613h5.148l-6.046,6.58l6.436,8.588h-5.269l-4.07-5.834l-1.781,1.112
			v4.722h-4.564v-21.111h4.564v9.416l-0.239,3.446H159.192z"/>
	</g>
	<text transform="matrix(1 0 0 1 25.9272 -76.9956)" display="inline" font-family="'DroidSans-Bold'" font-size="24">DroidSans</text>
	<path display="inline" fill="#FFDC0D" d="M12.333-40.317c-0.879-1.439-1.315-3.365-1.315-5.751c0-2.319,0.53-4.144,1.626-5.469
		c0.534-0.631,1.174-1.115,1.929-1.455c0.75-0.341,1.55-0.514,2.411-0.514c0.86,0,1.595,0.044,2.19,0.104
		c1.35,0.145,2.635,0.555,3.87,1.221l0.14-3.62c-0.47-0.085-0.905-0.16-1.285-0.251c-0.391-0.085-0.936-0.19-1.641-0.31
		c-0.719-0.115-1.77-0.189-3.181-0.189c-3.209,0-5.764,0.885-7.645,2.62c-2.078,1.909-3.114,4.688-3.114,8.318
		c0,3.295,0.896,5.887,2.696,7.782c0.875,0.944,1.939,1.68,3.224,2.179c1.286,0.501,2.785,0.751,4.525,0.751
		c1.739,0,3.399-0.221,4.98-0.665c0.595-0.145,1.095-0.295,1.52-0.439c0.405-0.131,0.785-0.206,1.096-0.206v-9.983h-7.581v3.044
		h3.306v4.632c-0.97,0.385-2.05,0.574-3.24,0.574c-1.189,0-2.129-0.206-2.82-0.636C13.333-38.991,12.769-39.582,12.333-40.317z"/>
	<path display="inline" fill="#FFDC0D" d="M31.408-41.653c0.99-0.514,2.27-0.778,3.84-0.778v3.659
		c-0.08,0.091-0.205,0.19-0.379,0.28c-0.67,0.37-1.375,0.546-2.125,0.546c-0.69,0-1.225-0.176-1.6-0.53
		c-0.205-0.176-0.36-0.396-0.47-0.66c-0.125-0.266-0.17-0.575-0.17-0.916C30.503-40.818,30.798-41.346,31.408-41.653z
		 M35.434-36.386c0,0.66,0.16,1.1,0.485,1.305c0.175,0.121,0.565,0.181,1.175,0.181h2.584v-10.341c0-2.145-0.55-3.66-1.615-4.515
		c-0.53-0.425-1.22-0.721-2.035-0.895c-0.829-0.165-1.69-0.25-2.564-0.25c-0.896,0-1.66,0.055-2.305,0.159
		c-1.925,0.325-3.445,0.78-4.555,1.379l0.985,2.531c0.33-0.129,0.955-0.336,1.88-0.615c0.925-0.266,1.785-0.414,2.569-0.414
		c1.361,0,2.235,0.12,2.646,0.34c0.375,0.22,0.565,0.72,0.565,1.499v0.91c-2.929,0-5.089,0.311-6.484,0.931
		c-1.896,0.849-2.836,2.204-2.836,4.029c0,1.54,0.485,2.806,1.456,3.78c0.975,0.984,2.239,1.471,3.839,1.471
		c1.625,0,3.035-0.529,4.21-1.605L35.434-36.386L35.434-36.386z"/>
	<path display="inline" fill="#FFDC0D" d="M42.375-41.682c0,2.312,0.299,3.94,0.924,4.896c0.784,1.267,2.255,1.886,4.401,1.886
		c0.394,0,0.798-0.029,1.24-0.104c1.345-0.236,2.505-0.646,3.474-1.268v0.651c0,0.304,0.095,0.499,0.28,0.585
		c0.189,0.089,0.455,0.135,0.8,0.135h2.929v-16h-4.434v12.04c-0.125,0.104-0.295,0.209-0.485,0.31
		c-0.75,0.416-1.484,0.605-2.22,0.605c-0.924,0-1.55-0.206-1.88-0.636c-0.409-0.499-0.595-1.484-0.595-2.955v-9.365h-4.434V-41.682z
		"/>
	<path display="inline" fill="#FFDC0D" d="M67.592-37.946c-1.364,0-2.399-0.426-3.1-1.296c-0.379-0.439-0.644-0.984-0.813-1.62
		c-0.191-0.615-0.271-1.38-0.271-2.29c0-0.899,0.125-1.665,0.41-2.31c0.72-1.59,1.956-2.399,3.725-2.399
		c1.35,0,2.416,0.265,3.195,0.765l0.55-3.085c-0.14-0.075-0.345-0.165-0.595-0.25c-0.955-0.311-2.16-0.47-3.604-0.47
		c-2.63,0-4.666,0.789-6.105,2.38c-1.315,1.453-1.976,3.399-1.976,5.809c0,2.341,0.631,4.19,1.896,5.575
		c1.335,1.5,3.209,2.235,5.656,2.235c0.5,0,1-0.03,1.489-0.104c1.565-0.206,2.725-0.614,3.476-1.25l-0.626-2.381
		C70.048-38.167,68.938-37.946,67.592-37.946z"/>
	<path display="inline" fill="#FFDC0D" d="M73.624-34.901h4.436v-11.001c0.25-0.21,0.516-0.4,0.795-0.56
		c0.846-0.44,1.675-0.675,2.49-0.675c0.865,0,1.475,0.25,1.819,0.72c0.345,0.5,0.53,1.38,0.53,2.66v8.855h4.435v-9.81
		c0-2.236-0.456-3.855-1.364-4.855c-0.441-0.499-0.986-0.834-1.615-1.044c-0.641-0.19-1.279-0.29-1.939-0.29
		c-0.654,0-1.271,0.069-1.814,0.204c-1.381,0.351-2.572,0.94-3.572,1.78l0.234-2.825v-5.75h-4.436L73.624-34.901L73.624-34.901z"/>
	<path display="inline" fill="#FFDC0D" d="M99.623-47.432c1.159,0.795,1.741,2.336,1.741,4.63c0,3.236-1.095,4.856-3.26,4.856
		c-0.626,0-1.142-0.149-1.552-0.44c-1.189-0.824-1.771-2.398-1.771-4.75c0-3.15,1.115-4.725,3.356-4.725
		C98.697-47.861,99.204-47.713,99.623-47.432z M97.933-34.901c2.351,0,4.262-0.649,5.7-1.971c1.535-1.4,2.32-3.369,2.32-5.931
		c0-2.31-0.58-4.174-1.712-5.599c-1.33-1.665-3.334-2.5-6.013-2.5c-2.381,0-4.277,0.659-5.7,1.969
		c-0.72,0.646-1.284,1.471-1.704,2.441c-0.425,0.969-0.625,2.06-0.625,3.235c0,1.189,0.124,2.281,0.39,3.251
		c0.249,0.97,0.689,1.839,1.315,2.603C93.232-35.726,95.238-34.901,97.933-34.901z"/>
	<path display="inline" fill="#FFDC0D" d="M111.608-37.166c-1.454-0.223-2.664-0.606-3.62-1.166l-0.751,2.386
		c0.19,0.115,0.472,0.235,0.86,0.351c1.477,0.475,3.195,0.694,5.199,0.694c2.195,0,3.914-0.446,5.187-1.354
		c0.625-0.454,1.108-1.029,1.47-1.734c0.346-0.705,0.535-1.529,0.535-2.501c0-0.97-0.314-1.87-0.926-2.72
		c-0.299-0.386-0.639-0.736-1.02-1.062c-0.391-0.324-0.814-0.63-1.25-0.924c-0.438-0.281-0.91-0.545-1.381-0.796
		c-0.47-0.25-1.248-0.63-2.314-1.161c-1.063-0.514-1.864-1.014-2.381-1.499c-0.363-0.294-0.614-0.634-0.769-1
		c-0.155-0.355-0.235-0.779-0.235-1.249c0-0.47,0.109-0.871,0.359-1.195c0.661-0.896,1.91-1.351,3.762-1.351
		c1.719,0,3.193,0.365,4.43,1.085l0.646-2.259c-0.471-0.266-1.087-0.491-1.821-0.666c-0.42-0.085-0.903-0.16-1.439-0.221
		c-0.528-0.059-1.283-0.104-2.253-0.104c-0.974,0-1.94,0.165-2.946,0.491c-2.505,0.834-3.755,2.425-3.755,4.774
		c0,1.354,0.56,2.59,1.688,3.734c0.502,0.515,1.08,0.975,1.735,1.37c0.646,0.41,1.585,0.895,2.82,1.455
		c1.239,0.575,2.13,1.074,2.694,1.515c0.83,0.65,1.256,1.44,1.256,2.372c0,1.894-1.445,2.834-4.313,2.834
		C112.579-37.066,112.092-37.095,111.608-37.166z"/>
	<path display="inline" fill="#FFDC0D" d="M133.019-43.303c0,2.001-0.455,3.561-1.347,4.681c-0.846,1.04-1.929,1.556-3.274,1.556
		c-1.409,0-2.38-0.236-2.908-0.706v-9.614c1.124-0.9,2.284-1.354,3.46-1.354C131.658-48.741,133.019-46.917,133.019-43.303z
		 M133.988-37.302c1.475-1.569,2.21-3.631,2.21-6.175c0-2.395-0.646-4.264-1.909-5.604c-0.596-0.615-1.271-1.069-2.035-1.365
		c-0.785-0.295-1.662-0.454-2.666-0.454c-1,0-1.99,0.22-2.929,0.659c-0.45,0.205-0.94,0.545-1.471,1.03v-1.689h-2.835v25.409h3.136
		v-7.749l-0.051-2.046c0.8,0.265,1.739,0.386,2.834,0.386s2.146-0.212,3.151-0.62C132.424-35.931,133.27-36.537,133.988-37.302z"/>
	<path display="inline" fill="#FFDC0D" d="M141.506-40.832c0.162-0.174,0.362-0.335,0.584-0.486c0.22-0.128,0.453-0.264,0.732-0.394
		c0.286-0.12,0.801-0.279,1.587-0.455c0.779-0.181,1.718-0.265,2.833-0.265v4.279c-0.095,0.085-0.249,0.206-0.484,0.321
		c-0.938,0.514-1.931,0.765-2.959,0.765c-1.864,0-2.791-0.78-2.791-2.366C141.008-39.961,141.164-40.429,141.506-40.832z
		 M140.898-35.212c0.595,0.207,1.205,0.312,1.799,0.312c0.596,0,1.13-0.046,1.586-0.135c1.316-0.235,2.346-0.675,3.131-1.326v0.104
		c0,0.604,0.154,1,0.485,1.189c0.188,0.12,0.578,0.166,1.188,0.166h1.271v-11.045c0-1.914-0.534-3.25-1.58-4.015
		c-0.521-0.355-1.13-0.604-1.835-0.735c-0.705-0.135-1.425-0.204-2.175-0.204c-0.755,0-1.44,0.055-2.071,0.175
		c-1.895,0.34-3.238,0.734-4.055,1.205l0.77,1.9c0.188-0.12,0.438-0.251,0.782-0.386c1.299-0.485,2.489-0.734,3.584-0.734
		c1.255,0,2.13,0.159,2.601,0.454c0.564,0.37,0.863,1.075,0.863,2.119v1.571h-1.488c-3.461,0-5.779,0.794-6.97,2.354
		c-0.581,0.765-0.86,1.589-0.86,2.469c0,0.888,0.109,1.621,0.358,2.191c0.251,0.573,0.597,1.06,1.036,1.46
		C139.754-35.726,140.289-35.417,140.898-35.212z"/>
	<path display="inline" fill="#FFDC0D" d="M164.35-50.137c-0.883-0.501-2.196-0.765-3.981-0.765c-2.521,0-4.479,0.789-5.854,2.364
		c-1.319,1.469-1.961,3.415-1.961,5.794c0,2.313,0.611,4.176,1.851,5.591c1.281,1.5,3.036,2.251,5.261,2.251
		c2.195,0,3.855-0.461,4.965-1.386l-0.645-1.704c-0.188,0.119-0.407,0.219-0.669,0.324c-1.052,0.41-2.116,0.601-3.181,0.601
		c-1.381,0-2.49-0.53-3.319-1.586c-0.847-1.062-1.256-2.469-1.256-4.22c0-2.016,0.519-3.56,1.55-4.62
		c0.831-0.825,1.865-1.249,3.104-1.249c1.58,0,2.785,0.34,3.629,1L164.35-50.137z"/>
	<path display="inline" fill="#FFDC0D" d="M175.389-44.316h-7.141c0.344-2.94,1.646-4.425,3.93-4.425
		c2.146,0,3.226,1.279,3.226,3.839C175.403-44.697,175.389-44.508,175.389-44.316z M178.164-42.153
		c0.09-0.469,0.154-1.414,0.154-2.809c-0.064-1.885-0.674-3.386-1.814-4.485c-1.064-0.97-2.416-1.454-4.062-1.454
		c-2.329,0-4.164,0.779-5.479,2.319c-1.22,1.445-1.83,3.325-1.83,5.65c0,2.529,0.61,4.499,1.859,5.895
		c1.241,1.426,3.012,2.136,5.313,2.136c0.469,0,0.988-0.03,1.519-0.104c1.836-0.206,3.151-0.604,3.931-1.189l-0.595-1.706
		c-0.405,0.222-1.03,0.41-1.909,0.585c-0.377,0.09-0.765,0.151-1.146,0.195c-0.392,0.04-0.812,0.056-1.267,0.056
		c-0.47,0-0.988-0.069-1.563-0.251c-1.931-0.529-2.961-2.13-3.085-4.836L178.164-42.153L178.164-42.153z"/>
	<g display="inline">
		<path fill="#FFFFFF" d="M-2.633-34.931v-1.148l0.788-0.006c-0.325-0.488-0.559-1.043-0.703-1.664
			c-0.057-0.258-0.085-0.527-0.085-0.809c0-0.283,0.042-0.543,0.126-0.785s0.229-0.443,0.436-0.604
			c0.394-0.301,1.079-0.451,2.055-0.451h4.157v1.289h-4.162c-0.585,0-0.989,0.078-1.212,0.234c-0.226,0.155-0.339,0.438-0.339,0.844
			c0,0.44,0.138,0.904,0.413,1.39c0.083,0.147,0.179,0.289,0.288,0.422h5.012v1.289H-2.633z"/>
		<path fill="#FFFFFF" d="M0.994-43.223c1.156-0.059,1.848-0.484,2.074-1.277c0.07-0.238,0.105-0.453,0.105-0.645
			s-0.01-0.366-0.029-0.524c-0.019-0.158-0.045-0.315-0.076-0.472c-0.078-0.363-0.164-0.627-0.258-0.791l0.738-0.246
			c0.266,0.324,0.449,0.867,0.551,1.629c0.031,0.219,0.047,0.428,0.047,0.627c0,0.945-0.301,1.676-0.902,2.191
			c-0.594,0.512-1.427,0.768-2.499,0.768c-0.991,0-1.789-0.252-2.395-0.756c-0.656-0.547-0.983-1.301-0.983-2.262
			c0-0.684,0.202-1.242,0.606-1.676c0.454-0.477,1.072-0.727,1.854-0.75c0.58,0,0.969,0.021,1.167,0.064V-43.223z M-0.107-46.206
			c-1.074,0-1.611,0.443-1.611,1.33c0,0.941,0.619,1.482,1.857,1.623V-46.2C0.056-46.204-0.025-46.206-0.107-46.206z"/>
		<path fill="#FFFFFF" d="M-2.633-48.098v-1.29l4.079-1.078l1.276-0.293l-1.271-0.27l-4.084-1.112v-1.284l4.079-1.107l1.3-0.287
			l-1.259-0.293l-4.12-1.043v-1.26l6.867,2.039v1.189l-4.365,1.196l-1.067,0.217l1.066,0.234l4.365,1.178v1.225L-2.633-48.098z"/>
	</g>
	<path display="inline" fill="#FFDC0D" d="M19.015,17.175c-0.879-1.439-1.315-3.365-1.315-5.751c0-2.319,0.53-4.144,1.626-5.469
		C19.86,5.324,20.5,4.84,21.255,4.5c0.75-0.341,1.55-0.514,2.411-0.514c0.86,0,1.595,0.044,2.19,0.104
		c1.35,0.145,2.635,0.555,3.87,1.221l0.14-3.62c-0.47-0.085-0.905-0.16-1.285-0.251c-0.391-0.085-0.936-0.19-1.641-0.31
		c-0.719-0.115-1.77-0.189-3.181-0.189c-3.209,0-5.764,0.885-7.645,2.62C14.036,5.47,13,8.249,13,11.879
		c0,3.295,0.896,5.887,2.696,7.782c0.875,0.944,1.939,1.68,3.224,2.179c1.286,0.501,2.785,0.751,4.525,0.751
		c1.739,0,3.399-0.221,4.98-0.665c0.595-0.145,1.095-0.295,1.52-0.439c0.405-0.131,0.785-0.206,1.096-0.206v-9.983H23.46v3.044
		h3.306v4.632c-0.97,0.385-2.05,0.574-3.24,0.574c-1.189,0-2.129-0.206-2.82-0.636C20.015,18.501,19.45,17.91,19.015,17.175z"/>
	<path display="inline" fill="#FFDC0D" d="M38.09,15.839c0.99-0.514,2.27-0.778,3.84-0.778v3.659c-0.08,0.091-0.205,0.19-0.379,0.28
		c-0.67,0.37-1.375,0.546-2.125,0.546c-0.69,0-1.225-0.176-1.6-0.53c-0.205-0.176-0.36-0.396-0.47-0.66
		c-0.125-0.266-0.17-0.575-0.17-0.916C37.185,16.674,37.48,16.146,38.09,15.839z M42.115,21.105c0,0.66,0.16,1.1,0.485,1.305
		c0.175,0.121,0.565,0.181,1.175,0.181h2.584V12.25c0-2.145-0.55-3.66-1.615-4.515c-0.53-0.425-1.22-0.721-2.035-0.895
		c-0.829-0.165-1.69-0.25-2.564-0.25c-0.896,0-1.66,0.055-2.305,0.159c-1.925,0.325-3.445,0.78-4.555,1.379l0.985,2.531
		c0.33-0.129,0.955-0.336,1.88-0.615c0.925-0.266,1.785-0.414,2.569-0.414c1.361,0,2.235,0.12,2.646,0.34
		c0.375,0.22,0.565,0.72,0.565,1.499v0.91c-2.929,0-5.089,0.311-6.484,0.931c-1.896,0.849-2.836,2.204-2.836,4.029
		c0,1.54,0.485,2.806,1.456,3.78c0.975,0.984,2.239,1.471,3.839,1.471c1.625,0,3.035-0.529,4.21-1.605L42.115,21.105L42.115,21.105z
		"/>
	<path display="inline" fill="#FFDC0D" d="M49.056,15.81c0,2.312,0.299,3.94,0.924,4.896c0.784,1.267,2.255,1.886,4.401,1.886
		c0.394,0,0.798-0.029,1.24-0.104c1.345-0.236,2.505-0.646,3.474-1.268v0.651c0,0.304,0.095,0.499,0.28,0.585
		c0.189,0.089,0.455,0.135,0.8,0.135h2.929v-16H58.67v12.04c-0.125,0.104-0.295,0.209-0.485,0.31
		c-0.75,0.416-1.484,0.605-2.22,0.605c-0.924,0-1.55-0.206-1.88-0.636c-0.409-0.499-0.595-1.484-0.595-2.955V6.591h-4.434V15.81z"/>
	<path display="inline" fill="#FFDC0D" d="M74.274,19.546c-1.364,0-2.399-0.426-3.1-1.296c-0.379-0.439-0.644-0.984-0.813-1.62
		c-0.191-0.615-0.271-1.38-0.271-2.29c0-0.899,0.125-1.665,0.41-2.31c0.72-1.59,1.956-2.399,3.725-2.399
		c1.35,0,2.416,0.265,3.195,0.765l0.55-3.085c-0.14-0.075-0.345-0.165-0.595-0.25c-0.955-0.311-2.16-0.47-3.604-0.47
		c-2.63,0-4.666,0.789-6.105,2.38c-1.315,1.453-1.976,3.399-1.976,5.809c0,2.341,0.631,4.19,1.896,5.575
		c1.335,1.5,3.209,2.235,5.656,2.235c0.5,0,1-0.03,1.489-0.104c1.565-0.206,2.725-0.614,3.476-1.25l-0.626-2.381
		C76.73,19.325,75.62,19.546,74.274,19.546z"/>
	<path display="inline" fill="#FFDC0D" d="M80.305,22.591h4.436V11.59c0.25-0.21,0.516-0.4,0.795-0.56
		c0.846-0.44,1.675-0.675,2.49-0.675c0.865,0,1.475,0.25,1.819,0.72c0.345,0.5,0.53,1.38,0.53,2.66v8.855h4.435v-9.81
		c0-2.236-0.456-3.855-1.364-4.855c-0.441-0.499-0.986-0.834-1.615-1.044c-0.641-0.19-1.279-0.29-1.939-0.29
		c-0.654,0-1.271,0.069-1.814,0.204c-1.381,0.351-2.572,0.94-3.572,1.78L84.74,5.75V0h-4.436L80.305,22.591L80.305,22.591z"/>
	<path display="inline" fill="#FFDC0D" d="M106.305,10.06c1.159,0.795,1.741,2.336,1.741,4.63c0,3.236-1.095,4.856-3.26,4.856
		c-0.626,0-1.142-0.149-1.552-0.44c-1.189-0.824-1.771-2.398-1.771-4.75c0-3.15,1.115-4.725,3.356-4.725
		C105.379,9.631,105.886,9.779,106.305,10.06z M104.614,22.591c2.351,0,4.262-0.649,5.7-1.971c1.535-1.4,2.32-3.369,2.32-5.931
		c0-2.31-0.58-4.174-1.712-5.599c-1.33-1.665-3.334-2.5-6.013-2.5c-2.381,0-4.277,0.659-5.7,1.969
		C98.49,9.205,97.926,10.03,97.506,11c-0.425,0.969-0.625,2.06-0.625,3.235c0,1.189,0.124,2.281,0.39,3.251
		c0.249,0.97,0.689,1.839,1.315,2.603C99.914,21.766,101.92,22.591,104.614,22.591z"/>
	<path display="inline" fill="#FFDC0D" d="M118.29,20.326c-1.454-0.223-2.664-0.606-3.62-1.166l-0.751,2.386
		c0.19,0.115,0.472,0.235,0.86,0.351c1.477,0.475,3.195,0.694,5.199,0.694c2.195,0,3.914-0.446,5.187-1.354
		c0.625-0.454,1.108-1.029,1.47-1.734c0.346-0.705,0.535-1.529,0.535-2.501c0-0.97-0.314-1.87-0.926-2.72
		c-0.299-0.386-0.639-0.736-1.02-1.062c-0.391-0.324-0.814-0.63-1.25-0.924c-0.438-0.281-0.91-0.545-1.381-0.796
		c-0.47-0.25-1.248-0.63-2.314-1.161c-1.063-0.514-1.864-1.014-2.381-1.499c-0.363-0.294-0.614-0.634-0.769-1
		c-0.155-0.355-0.235-0.779-0.235-1.249c0-0.47,0.109-0.871,0.359-1.195c0.661-0.896,1.91-1.351,3.762-1.351
		c1.719,0,3.193,0.365,4.43,1.085l0.646-2.259c-0.471-0.266-1.087-0.491-1.821-0.666c-0.42-0.085-0.903-0.16-1.439-0.221
		c-0.528-0.059-1.283-0.104-2.253-0.104c-0.974,0-1.94,0.165-2.946,0.491c-2.505,0.834-3.755,2.425-3.755,4.774
		c0,1.354,0.56,2.59,1.688,3.734c0.502,0.515,1.08,0.975,1.735,1.37c0.646,0.41,1.585,0.895,2.82,1.455
		c1.239,0.575,2.13,1.074,2.694,1.515c0.83,0.65,1.256,1.44,1.256,2.372c0,1.894-1.445,2.834-4.313,2.834
		C119.261,20.426,118.773,20.396,118.29,20.326z"/>
	<path display="inline" fill="#FFDC0D" d="M139.7,14.189c0,2.001-0.455,3.561-1.347,4.681c-0.846,1.04-1.929,1.556-3.274,1.556
		c-1.409,0-2.38-0.236-2.908-0.706v-9.614c1.124-0.9,2.284-1.354,3.46-1.354C138.34,8.751,139.7,10.575,139.7,14.189z
		 M140.67,20.189c1.475-1.569,2.21-3.631,2.21-6.175c0-2.395-0.646-4.264-1.909-5.604c-0.596-0.615-1.271-1.069-2.035-1.365
		c-0.785-0.295-1.662-0.454-2.666-0.454c-1,0-1.99,0.22-2.929,0.659c-0.45,0.205-0.94,0.545-1.471,1.03V6.591h-2.835V32h3.136
		v-7.749l-0.051-2.046c0.8,0.265,1.739,0.386,2.834,0.386s2.146-0.212,3.151-0.62C139.105,21.561,139.951,20.955,140.67,20.189z"/>
	<path display="inline" fill="#FFDC0D" d="M148.188,16.66c0.162-0.174,0.362-0.335,0.584-0.486c0.22-0.128,0.453-0.264,0.732-0.394
		c0.286-0.12,0.801-0.279,1.587-0.455c0.779-0.181,1.718-0.265,2.833-0.265v4.279c-0.095,0.085-0.249,0.206-0.484,0.321
		c-0.938,0.514-1.931,0.765-2.959,0.765c-1.864,0-2.791-0.78-2.791-2.366C147.689,17.53,147.846,17.063,148.188,16.66z
		 M147.58,22.279c0.595,0.207,1.205,0.312,1.799,0.312c0.596,0,1.13-0.046,1.586-0.135c1.316-0.235,2.346-0.675,3.131-1.326v0.104
		c0,0.604,0.154,1,0.485,1.189c0.188,0.12,0.578,0.166,1.188,0.166h1.271V11.545c0-1.914-0.534-3.25-1.58-4.015
		c-0.521-0.355-1.13-0.604-1.835-0.735c-0.705-0.135-1.425-0.204-2.175-0.204c-0.755,0-1.44,0.055-2.071,0.175
		c-1.895,0.34-3.238,0.734-4.055,1.205l0.77,1.9c0.188-0.12,0.438-0.251,0.782-0.386c1.299-0.485,2.489-0.734,3.584-0.734
		c1.255,0,2.13,0.159,2.601,0.454c0.564,0.37,0.863,1.075,0.863,2.119v1.571h-1.488c-3.461,0-5.779,0.794-6.97,2.354
		c-0.581,0.765-0.86,1.589-0.86,2.469c0,0.888,0.109,1.621,0.358,2.191c0.251,0.573,0.597,1.06,1.036,1.46
		C146.436,21.766,146.971,22.075,147.58,22.279z"/>
	<path display="inline" fill="#FFDC0D" d="M171.031,7.355c-0.883-0.501-2.196-0.765-3.981-0.765c-2.521,0-4.479,0.789-5.854,2.364
		c-1.319,1.469-1.961,3.415-1.961,5.794c0,2.313,0.611,4.176,1.851,5.591c1.281,1.5,3.036,2.251,5.261,2.251
		c2.195,0,3.855-0.461,4.965-1.386l-0.645-1.704c-0.188,0.119-0.407,0.219-0.669,0.324c-1.052,0.41-2.116,0.601-3.181,0.601
		c-1.381,0-2.49-0.53-3.319-1.586c-0.847-1.062-1.256-2.469-1.256-4.22c0-2.016,0.519-3.56,1.55-4.62
		c0.831-0.825,1.865-1.249,3.104-1.249c1.58,0,2.785,0.34,3.629,1L171.031,7.355z"/>
	<path display="inline" fill="#FFDC0D" d="M182.07,13.176h-7.141c0.344-2.94,1.646-4.425,3.93-4.425
		c2.146,0,3.226,1.279,3.226,3.839C182.085,12.795,182.07,12.984,182.07,13.176z M184.846,15.339
		c0.09-0.469,0.154-1.414,0.154-2.809c-0.064-1.885-0.674-3.386-1.814-4.485c-1.064-0.97-2.416-1.454-4.062-1.454
		c-2.329,0-4.164,0.779-5.479,2.319c-1.22,1.445-1.83,3.325-1.83,5.65c0,2.529,0.61,4.499,1.859,5.895
		c1.241,1.426,3.012,2.136,5.313,2.136c0.469,0,0.988-0.03,1.519-0.104c1.836-0.206,3.151-0.604,3.931-1.189l-0.595-1.706
		c-0.405,0.222-1.03,0.41-1.909,0.585c-0.377,0.09-0.765,0.151-1.146,0.195c-0.392,0.04-0.812,0.056-1.267,0.056
		c-0.47,0-0.988-0.069-1.563-0.251c-1.931-0.529-2.961-2.13-3.085-4.836L184.846,15.339L184.846,15.339z"/>
	<g display="inline">
		<path fill="#FFFFFF" d="M4.049,22.561v-1.148l0.788-0.006c-0.325-0.488-0.559-1.043-0.703-1.664
			c-0.057-0.258-0.085-0.527-0.085-0.809c0-0.283,0.042-0.543,0.126-0.785s0.229-0.443,0.436-0.604
			c0.394-0.301,1.079-0.451,2.055-0.451h4.157v1.289H6.661c-0.585,0-0.989,0.078-1.212,0.234C5.223,18.771,5.11,19.055,5.11,19.46
			c0,0.44,0.138,0.904,0.413,1.39c0.083,0.147,0.179,0.289,0.288,0.422h5.012v1.289H4.049z"/>
		<path fill="#FFFFFF" d="M7.676,14.269c1.156-0.059,1.848-0.484,2.074-1.277c0.07-0.238,0.105-0.453,0.105-0.645
			s-0.01-0.366-0.029-0.524c-0.019-0.158-0.045-0.315-0.076-0.472c-0.078-0.363-0.164-0.627-0.258-0.791l0.738-0.246
			c0.266,0.324,0.449,0.867,0.551,1.629c0.031,0.219,0.047,0.428,0.047,0.627c0,0.945-0.301,1.676-0.902,2.191
			c-0.594,0.512-1.427,0.768-2.499,0.768c-0.991,0-1.789-0.252-2.395-0.756c-0.656-0.547-0.983-1.301-0.983-2.262
			c0-0.684,0.202-1.242,0.606-1.676c0.454-0.477,1.072-0.727,1.854-0.75c0.58,0,0.969,0.021,1.167,0.064V14.269z M6.574,11.286
			c-1.074,0-1.611,0.443-1.611,1.33c0,0.941,0.619,1.482,1.857,1.623v-2.947C6.738,11.288,6.656,11.286,6.574,11.286z"/>
		<path fill="#FFFFFF" d="M4.049,9.394v-1.29l4.079-1.078l1.276-0.293l-1.271-0.27L4.049,5.351V4.067L8.128,2.96l1.3-0.287
			L8.169,2.38l-4.12-1.043v-1.26l6.867,2.039v1.189L6.551,4.501L5.484,4.718L6.55,4.952l4.365,1.178v1.225L4.049,9.394z"/>
	</g>
	<g display="inline">
		<path fill="#FFFFFF" stroke="#000000" stroke-width="0.25" stroke-miterlimit="10" d="M4.049,22.561v-1.148l0.788-0.006
			c-0.325-0.488-0.559-1.043-0.703-1.664c-0.057-0.258-0.085-0.527-0.085-0.809c0-0.283,0.042-0.543,0.126-0.785
			s0.229-0.443,0.436-0.604c0.394-0.301,1.079-0.451,2.055-0.451h4.157v1.289H6.661c-0.585,0-0.989,0.078-1.212,0.234
			C5.223,18.771,5.11,19.055,5.11,19.46c0,0.44,0.138,0.904,0.413,1.39c0.083,0.147,0.179,0.289,0.288,0.422h5.012v1.289H4.049z"/>
		<path fill="#FFFFFF" stroke="#000000" stroke-width="0.25" stroke-miterlimit="10" d="M7.676,14.269
			c1.156-0.059,1.848-0.484,2.074-1.277c0.07-0.238,0.105-0.453,0.105-0.645s-0.01-0.366-0.029-0.524
			c-0.019-0.158-0.045-0.315-0.076-0.472c-0.078-0.363-0.164-0.627-0.258-0.791l0.738-0.246c0.266,0.324,0.449,0.867,0.551,1.629
			c0.031,0.219,0.047,0.428,0.047,0.627c0,0.945-0.301,1.676-0.902,2.191c-0.594,0.512-1.427,0.768-2.499,0.768
			c-0.991,0-1.789-0.252-2.395-0.756c-0.656-0.547-0.983-1.301-0.983-2.262c0-0.684,0.202-1.242,0.606-1.676
			c0.454-0.477,1.072-0.727,1.854-0.75c0.58,0,0.969,0.021,1.167,0.064V14.269z M6.574,11.286c-1.074,0-1.611,0.443-1.611,1.33
			c0,0.941,0.619,1.482,1.857,1.623v-2.947C6.738,11.288,6.656,11.286,6.574,11.286z"/>
		<path fill="#FFFFFF" stroke="#000000" stroke-width="0.25" stroke-miterlimit="10" d="M4.049,9.394v-1.29l4.079-1.078l1.276-0.293
			l-1.271-0.27L4.049,5.351V4.067L8.128,2.96l1.3-0.287L8.169,2.38l-4.12-1.043v-1.26l6.867,2.039v1.189L6.551,4.501L5.484,4.718
			L6.55,4.952l4.365,1.178v1.225L4.049,9.394z"/>
	</g>
</g>
</svg>
